<svg width="104" height="34" viewBox="0 0 104 34" fill="none" xmlns="http://www.w3.org/2000/svg">
<path d="M21.2791 16.1618C21.2975 14.7603 22.0464 13.4658 23.2635 12.7318C22.4922 11.6512 21.2467 10.9906 19.9026 10.9494C18.4885 10.8038 17.1176 11.7795 16.397 11.7795C15.6624 11.7795 14.5529 10.9638 13.3582 10.988C11.7863 11.0378 10.3563 11.8933 9.59156 13.2414C7.96293 16.0075 9.17774 20.0727 10.7378 22.3086C11.5184 23.4035 12.4306 24.6264 13.6243 24.5831C14.7923 24.5356 15.2286 23.8524 16.6385 23.8524C18.0353 23.8524 18.4446 24.5831 19.6625 24.5555C20.9159 24.5355 21.7055 23.4558 22.4587 22.3506C23.0195 21.5704 23.4511 20.7082 23.7374 19.7959C22.2488 19.1782 21.2808 17.7473 21.2791 16.1618Z" fill="white"/>
<path d="M18.9788 9.47828C19.6622 8.6735 19.9988 7.63909 19.9173 6.59473C18.8732 6.7023 17.9088 7.19181 17.2162 7.96571C16.5323 8.72927 16.1858 9.72821 16.2531 10.7425C17.3111 10.7532 18.3157 10.2872 18.9788 9.47828Z" fill="white"/>
<path d="M34.52 13.0959C34.1574 13.0959 33.8174 13.0385 33.5 12.9239C33.1827 12.8092 32.888 12.6185 32.616 12.3519L33.12 11.7199C33.3387 11.9225 33.5574 12.0679 33.776 12.1559C33.9947 12.2439 34.24 12.2879 34.512 12.2879C34.816 12.2879 35.0707 12.2145 35.276 12.0679C35.4814 11.9212 35.584 11.7065 35.584 11.4239C35.584 11.1465 35.484 10.9439 35.284 10.8159C35.084 10.6879 34.792 10.6239 34.408 10.6239H33.76V9.92788H34.248C34.632 9.92788 34.908 9.86388 35.076 9.73588C35.244 9.60787 35.328 9.42388 35.328 9.18388C35.328 8.94387 35.2454 8.76654 35.08 8.65188C34.9147 8.53721 34.704 8.47987 34.448 8.47987C34.224 8.47987 34.0187 8.51854 33.832 8.59587C33.6454 8.67321 33.4667 8.78121 33.296 8.91988L32.824 8.30387C33.032 8.10654 33.2787 7.95188 33.564 7.83988C33.8494 7.72787 34.152 7.67188 34.472 7.67188C35.0214 7.67188 35.452 7.79321 35.764 8.03588C36.076 8.27854 36.232 8.61587 36.232 9.04788C36.232 9.31454 36.172 9.54921 36.052 9.75187C35.932 9.95454 35.752 10.1039 35.512 10.1999V10.2319C35.7947 10.2959 36.0294 10.4372 36.216 10.6559C36.4027 10.8745 36.496 11.1519 36.496 11.4879C36.496 11.7492 36.4454 11.9799 36.344 12.1799C36.2427 12.3799 36.1027 12.5479 35.924 12.6839C35.7454 12.8199 35.536 12.9225 35.296 12.9919C35.056 13.0612 34.7974 13.0959 34.52 13.0959ZM38.32 13.0959C37.9734 13.0959 37.6934 12.9905 37.48 12.7799C37.2667 12.5692 37.16 12.2905 37.16 11.9439C37.16 11.7359 37.204 11.5505 37.292 11.3879C37.38 11.2252 37.5187 11.0852 37.708 10.9679C37.8974 10.8505 38.1374 10.7519 38.428 10.6719C38.7187 10.5919 39.0667 10.5305 39.472 10.4879C39.4667 10.3865 39.452 10.2892 39.428 10.1959C39.404 10.1025 39.364 10.0199 39.308 9.94788C39.252 9.87587 39.1787 9.81988 39.088 9.77987C38.9974 9.73987 38.8854 9.71988 38.752 9.71988C38.56 9.71988 38.372 9.75721 38.188 9.83187C38.004 9.90654 37.824 9.99721 37.648 10.1039L37.312 9.48787C37.5307 9.34921 37.776 9.22921 38.048 9.12788C38.32 9.02654 38.6134 8.97587 38.928 8.97587C39.4187 8.97587 39.7854 9.12121 40.028 9.41187C40.2707 9.70254 40.392 10.1225 40.392 10.6719V12.9999H39.632L39.568 12.5679H39.536C39.36 12.7172 39.172 12.8425 38.972 12.9439C38.772 13.0452 38.5547 13.0959 38.32 13.0959ZM38.616 12.3759C38.776 12.3759 38.9214 12.3385 39.052 12.2639C39.1827 12.1892 39.3227 12.0825 39.472 11.9439V11.0639C39.2054 11.0959 38.9814 11.1385 38.8 11.1919C38.6187 11.2452 38.472 11.3052 38.36 11.3719C38.248 11.4385 38.168 11.5145 38.12 11.5999C38.072 11.6852 38.048 11.7759 38.048 11.8719C38.048 12.0479 38.1014 12.1759 38.208 12.2559C38.3147 12.3359 38.4507 12.3759 38.616 12.3759ZM41.496 12.9999V9.07187H44.08V9.79988H42.416V12.9999H41.496ZM44.872 14.5519V9.07187H45.632L45.696 9.48787H45.728C45.8934 9.34921 46.0774 9.22921 46.28 9.12788C46.4827 9.02654 46.6934 8.97587 46.912 8.97587C47.1574 8.97587 47.3747 9.02254 47.564 9.11588C47.7534 9.20921 47.9147 9.34387 48.048 9.51988C48.1814 9.69588 48.2827 9.90654 48.352 10.1519C48.4214 10.3972 48.456 10.6719 48.456 10.9759C48.456 11.3119 48.4094 11.6119 48.316 11.8759C48.2227 12.1399 48.0987 12.3612 47.944 12.5399C47.7894 12.7185 47.6107 12.8559 47.408 12.9519C47.2054 13.0479 46.9947 13.0959 46.776 13.0959C46.6054 13.0959 46.4347 13.0585 46.264 12.9839C46.0934 12.9092 45.928 12.8025 45.768 12.6639L45.792 13.3199V14.5519H44.872ZM46.584 12.3359C46.8454 12.3359 47.064 12.2225 47.24 11.9959C47.416 11.7692 47.504 11.4319 47.504 10.9839C47.504 10.5892 47.4374 10.2825 47.304 10.0639C47.1707 9.84521 46.9547 9.73588 46.656 9.73588C46.3787 9.73588 46.0907 9.88254 45.792 10.1759V12.0079C45.936 12.1305 46.0747 12.2159 46.208 12.2639C46.3414 12.3119 46.4667 12.3359 46.584 12.3359ZM49.648 14.6159C49.5414 14.6159 49.448 14.6092 49.368 14.5959C49.288 14.5825 49.2107 14.5625 49.136 14.5359L49.304 13.8159C49.3414 13.8265 49.3854 13.8385 49.436 13.8519C49.4867 13.8652 49.536 13.8719 49.584 13.8719C49.792 13.8719 49.9587 13.8092 50.084 13.6839C50.2094 13.5585 50.304 13.3972 50.368 13.1999L50.44 12.9519L48.896 9.07187H49.832L50.512 10.9999C50.5707 11.1705 50.628 11.3505 50.684 11.5399C50.74 11.7292 50.7974 11.9172 50.856 12.1039H50.888C50.936 11.9225 50.9854 11.7372 51.036 11.5479C51.0867 11.3585 51.136 11.1759 51.184 10.9999L51.776 9.07187H52.664L51.24 13.1759C51.16 13.3999 51.072 13.5999 50.976 13.7759C50.88 13.9519 50.7694 14.1025 50.644 14.2279C50.5187 14.3532 50.3747 14.4492 50.212 14.5159C50.0494 14.5825 49.8614 14.6159 49.648 14.6159ZM54.52 13.0959C54.248 13.0959 53.9907 13.0625 53.748 12.9959C53.5054 12.9292 53.2614 12.8025 53.016 12.6159L53.392 12.0239C53.5627 12.1572 53.7374 12.2505 53.916 12.3039C54.0947 12.3572 54.2694 12.3839 54.44 12.3839C54.68 12.3839 54.8814 12.3332 55.044 12.2319C55.2067 12.1305 55.288 11.9892 55.288 11.8079C55.288 11.4612 55.0214 11.2879 54.488 11.2879H53.904V10.6639H54.408C54.6587 10.6639 54.8454 10.6199 54.968 10.5319C55.0907 10.4439 55.152 10.3225 55.152 10.1679C55.152 10.0079 55.0894 9.88788 54.964 9.80787C54.8387 9.72787 54.6694 9.68787 54.456 9.68787C54.2534 9.68787 54.0747 9.71187 53.92 9.75988C53.7654 9.80788 53.6107 9.88521 53.456 9.99187L53.096 9.39188C53.2987 9.25321 53.516 9.14921 53.748 9.07987C53.98 9.01054 54.2347 8.97587 54.512 8.97587C54.7147 8.97587 54.908 8.99721 55.092 9.03988C55.276 9.08254 55.4387 9.14787 55.58 9.23588C55.7214 9.32388 55.8334 9.43721 55.916 9.57588C55.9987 9.71454 56.04 9.87721 56.04 10.0639C56.04 10.2399 55.9867 10.4065 55.88 10.5639C55.7734 10.7212 55.6134 10.8372 55.4 10.9119V10.9439C55.64 11.0025 55.8334 11.1079 55.98 11.2599C56.1267 11.4119 56.2 11.6239 56.2 11.8959C56.2 12.0879 56.1534 12.2585 56.06 12.4079C55.9667 12.5572 55.8414 12.6825 55.684 12.7839C55.5267 12.8852 55.3467 12.9625 55.144 13.0159C54.9414 13.0692 54.7334 13.0959 54.52 13.0959ZM57.072 12.9999V9.07187H57.968V10.4239C57.968 10.6265 57.9587 10.8519 57.94 11.0999C57.9214 11.3479 57.904 11.5972 57.888 11.8479H57.912C57.9814 11.7252 58.064 11.5852 58.16 11.4279C58.256 11.2705 58.336 11.1332 58.4 11.0159L59.648 9.07187H60.496V12.9999H59.6V11.6479C59.6 11.4452 59.6094 11.2199 59.628 10.9719C59.6467 10.7239 59.6667 10.4745 59.688 10.2239H59.656C59.5867 10.3465 59.5054 10.4865 59.412 10.6439C59.3187 10.8012 59.2374 10.9385 59.168 11.0559L57.92 12.9999H57.072ZM62.52 12.9999V9.79988H61.288V9.07187H64.68V9.79988H63.448V12.9999H62.52ZM67.152 13.0959C66.88 13.0959 66.6267 13.0492 66.392 12.9559C66.1574 12.8625 65.952 12.7279 65.776 12.5519C65.6 12.3759 65.4627 12.1612 65.364 11.9079C65.2654 11.6545 65.216 11.3652 65.216 11.0399C65.216 10.7199 65.2667 10.4319 65.368 10.1759C65.4694 9.91987 65.604 9.70388 65.772 9.52787C65.94 9.35187 66.1334 9.21588 66.352 9.11987C66.5707 9.02387 66.7947 8.97587 67.024 8.97587C67.2907 8.97587 67.5254 9.02121 67.728 9.11188C67.9307 9.20254 68.1 9.33054 68.236 9.49588C68.372 9.66121 68.4747 9.85854 68.544 10.0879C68.6134 10.3172 68.648 10.5679 68.648 10.8399C68.648 10.9305 68.644 11.0159 68.636 11.0959C68.628 11.1759 68.6187 11.2399 68.608 11.2879H66.112C66.1547 11.6399 66.2787 11.9105 66.484 12.0999C66.6894 12.2892 66.952 12.3839 67.272 12.3839C67.4427 12.3839 67.6014 12.3585 67.748 12.3079C67.8947 12.2572 68.04 12.1865 68.184 12.0959L68.496 12.6719C68.3094 12.7945 68.1014 12.8959 67.872 12.9759C67.6427 13.0559 67.4027 13.0959 67.152 13.0959ZM66.104 10.6639H67.848C67.848 10.3599 67.7827 10.1212 67.652 9.94788C67.5214 9.77454 67.32 9.68787 67.048 9.68787C66.8134 9.68787 66.608 9.77054 66.432 9.93587C66.256 10.1012 66.1467 10.3439 66.104 10.6639ZM71.128 12.9999V9.07187H72.72C72.9387 9.07187 73.14 9.08921 73.324 9.12387C73.508 9.15854 73.668 9.21587 73.804 9.29587C73.94 9.37587 74.0467 9.48121 74.124 9.61188C74.2014 9.74254 74.24 9.90121 74.24 10.0879C74.24 10.2799 74.1854 10.4492 74.076 10.5959C73.9667 10.7425 73.8027 10.8479 73.584 10.9119V10.9439C73.8187 11.0025 74.0134 11.1039 74.168 11.2479C74.3227 11.3919 74.4 11.5999 74.4 11.8719C74.4 12.0692 74.3587 12.2385 74.276 12.3799C74.1934 12.5212 74.08 12.6385 73.936 12.7319C73.792 12.8252 73.6227 12.8932 73.428 12.9359C73.2334 12.9785 73.024 12.9999 72.8 12.9999H71.128ZM72.032 10.6639H72.632C72.888 10.6639 73.072 10.6212 73.184 10.5359C73.296 10.4505 73.352 10.3332 73.352 10.1839C73.352 10.0292 73.2987 9.90921 73.192 9.82388C73.0854 9.73854 72.9067 9.69588 72.656 9.69588H72.032V10.6639ZM72.032 12.3759H72.736C73.0027 12.3759 73.196 12.3252 73.316 12.2239C73.436 12.1225 73.496 11.9865 73.496 11.8159C73.496 11.6559 73.432 11.5279 73.304 11.4319C73.176 11.3359 72.976 11.2879 72.704 11.2879H72.032V12.3759Z" fill="white"/>
<path d="M35.038 20.1278L34.716 21.2478H37.054L36.732 20.1278C36.5826 19.6424 36.4403 19.1431 36.305 18.6298C36.1697 18.1164 36.0367 17.6078 35.906 17.1038H35.85C35.7193 17.6171 35.5887 18.1281 35.458 18.6368C35.3273 19.1454 35.1873 19.6424 35.038 20.1278ZM31.972 24.9998L34.954 15.8438H36.858L39.84 24.9998H38.132L37.418 22.5218H34.338L33.624 24.9998H31.972ZM40.834 27.7158V18.1258H42.164L42.276 18.8538H42.332C42.6213 18.6111 42.9433 18.4011 43.298 18.2238C43.6527 18.0464 44.0213 17.9578 44.404 17.9578C44.8333 17.9578 45.2136 18.0394 45.545 18.2028C45.8763 18.3661 46.1586 18.6018 46.392 18.9098C46.6253 19.2178 46.8027 19.5864 46.924 20.0158C47.0453 20.4451 47.106 20.9258 47.106 21.4578C47.106 22.0458 47.0243 22.5708 46.861 23.0328C46.6977 23.4948 46.4807 23.8821 46.21 24.1948C45.9393 24.5074 45.6267 24.7478 45.272 24.9158C44.9173 25.0838 44.5487 25.1678 44.166 25.1678C43.8673 25.1678 43.5687 25.1024 43.27 24.9718C42.9713 24.8411 42.682 24.6545 42.402 24.4118L42.444 25.5598V27.7158H40.834ZM43.83 23.8378C44.2873 23.8378 44.67 23.6395 44.978 23.2428C45.286 22.8461 45.44 22.2558 45.44 21.4718C45.44 20.7811 45.3233 20.2444 45.09 19.8618C44.8567 19.4791 44.4787 19.2878 43.956 19.2878C43.4707 19.2878 42.9667 19.5444 42.444 20.0578V23.2638C42.696 23.4784 42.9387 23.6278 43.172 23.7118C43.4053 23.7958 43.6247 23.8378 43.83 23.8378ZM48.73 27.7158V18.1258H50.06L50.172 18.8538H50.228C50.5173 18.6111 50.8393 18.4011 51.194 18.2238C51.5487 18.0464 51.9173 17.9578 52.3 17.9578C52.7293 17.9578 53.1097 18.0394 53.441 18.2028C53.7723 18.3661 54.0546 18.6018 54.288 18.9098C54.5213 19.2178 54.6987 19.5864 54.82 20.0158C54.9413 20.4451 55.002 20.9258 55.002 21.4578C55.002 22.0458 54.9203 22.5708 54.757 23.0328C54.5937 23.4948 54.3767 23.8821 54.106 24.1948C53.8353 24.5074 53.5227 24.7478 53.168 24.9158C52.8133 25.0838 52.4447 25.1678 52.062 25.1678C51.7633 25.1678 51.4647 25.1024 51.166 24.9718C50.8673 24.8411 50.578 24.6545 50.298 24.4118L50.34 25.5598V27.7158H48.73ZM51.726 23.8378C52.1833 23.8378 52.566 23.6395 52.874 23.2428C53.182 22.8461 53.336 22.2558 53.336 21.4718C53.336 20.7811 53.2193 20.2444 52.986 19.8618C52.7527 19.4791 52.3747 19.2878 51.852 19.2878C51.3666 19.2878 50.8627 19.5444 50.34 20.0578V23.2638C50.592 23.4784 50.8347 23.6278 51.068 23.7118C51.3013 23.7958 51.5207 23.8378 51.726 23.8378ZM62.24 25.1678C61.624 25.1678 61.029 25.0511 60.455 24.8178C59.881 24.5844 59.3747 24.2531 58.936 23.8238L59.888 22.7178C60.2147 23.0258 60.588 23.2754 61.008 23.4668C61.428 23.6581 61.848 23.7538 62.268 23.7538C62.7907 23.7538 63.1873 23.6464 63.458 23.4318C63.7287 23.2171 63.864 22.9324 63.864 22.5778C63.864 22.3911 63.829 22.2324 63.759 22.1018C63.689 21.9711 63.591 21.8568 63.465 21.7588C63.339 21.6608 63.1897 21.5698 63.017 21.4858C62.8443 21.4018 62.6553 21.3178 62.45 21.2338L61.19 20.6878C60.966 20.5944 60.7443 20.4778 60.525 20.3378C60.3057 20.1978 60.1073 20.0298 59.93 19.8338C59.7527 19.6378 59.6103 19.4091 59.503 19.1478C59.3956 18.8864 59.342 18.5878 59.342 18.2518C59.342 17.8878 59.419 17.5494 59.573 17.2368C59.727 16.9241 59.9393 16.6511 60.21 16.4178C60.4807 16.1844 60.805 16.0024 61.183 15.8718C61.561 15.7411 61.974 15.6758 62.422 15.6758C62.954 15.6758 63.4673 15.7808 63.962 15.9908C64.4567 16.2008 64.8813 16.4831 65.236 16.8378L64.41 17.8738C64.1113 17.6311 63.8033 17.4398 63.486 17.2998C63.1686 17.1598 62.814 17.0898 62.422 17.0898C61.9833 17.0898 61.6333 17.1854 61.372 17.3768C61.1107 17.5681 60.98 17.8318 60.98 18.1678C60.98 18.3451 61.0196 18.4968 61.099 18.6228C61.1783 18.7488 61.2857 18.8608 61.421 18.9588C61.5563 19.0568 61.7127 19.1454 61.89 19.2248C62.0673 19.3041 62.2493 19.3811 62.436 19.4558L63.682 19.9738C63.9527 20.0858 64.2 20.2164 64.424 20.3658C64.648 20.5151 64.8416 20.6878 65.005 20.8838C65.1683 21.0798 65.2966 21.3061 65.39 21.5628C65.4833 21.8194 65.53 22.1158 65.53 22.4518C65.53 22.8251 65.4553 23.1751 65.306 23.5018C65.1567 23.8285 64.9397 24.1154 64.655 24.3628C64.3703 24.6101 64.025 24.8061 63.619 24.9508C63.213 25.0954 62.7533 25.1678 62.24 25.1678ZM69.478 25.1678C69.0766 25.1678 68.7383 25.1071 68.463 24.9858C68.1876 24.8644 67.9637 24.6941 67.791 24.4748C67.6183 24.2554 67.4923 23.9941 67.413 23.6908C67.3337 23.3874 67.294 23.0491 67.294 22.6758V19.3998H66.314V18.1958L67.378 18.1258L67.574 16.2498H68.918V18.1258H70.668V19.3998H68.918V22.6758C68.918 23.4785 69.24 23.8798 69.884 23.8798C70.0053 23.8798 70.129 23.8658 70.255 23.8378C70.381 23.8098 70.4953 23.7724 70.598 23.7258L70.878 24.9158C70.6913 24.9811 70.479 25.0394 70.241 25.0908C70.003 25.1421 69.7486 25.1678 69.478 25.1678ZM74.924 25.1678C74.4947 25.1678 74.084 25.0884 73.692 24.9298C73.3 24.7711 72.9523 24.5378 72.649 24.2298C72.3457 23.9218 72.1053 23.5438 71.928 23.0958C71.7507 22.6478 71.662 22.1391 71.662 21.5698C71.662 21.0004 71.7507 20.4918 71.928 20.0438C72.1053 19.5958 72.3457 19.2178 72.649 18.9098C72.9523 18.6018 73.3 18.3661 73.692 18.2028C74.084 18.0394 74.4947 17.9578 74.924 17.9578C75.3533 17.9578 75.7663 18.0394 76.163 18.2028C76.5597 18.3661 76.9073 18.6018 77.206 18.9098C77.5047 19.2178 77.745 19.5958 77.927 20.0438C78.109 20.4918 78.2 21.0004 78.2 21.5698C78.2 22.1391 78.109 22.6478 77.927 23.0958C77.745 23.5438 77.5047 23.9218 77.206 24.2298C76.9073 24.5378 76.5597 24.7711 76.163 24.9298C75.7663 25.0884 75.3533 25.1678 74.924 25.1678ZM74.924 23.8518C75.428 23.8518 75.8246 23.6441 76.114 23.2288C76.4033 22.8134 76.548 22.2605 76.548 21.5698C76.548 20.8698 76.4033 20.3121 76.114 19.8968C75.8246 19.4814 75.428 19.2738 74.924 19.2738C74.42 19.2738 74.0257 19.4814 73.741 19.8968C73.4563 20.3121 73.314 20.8698 73.314 21.5698C73.314 22.2605 73.4563 22.8134 73.741 23.2288C74.0257 23.6441 74.42 23.8518 74.924 23.8518ZM79.796 24.9998V18.1258H81.126L81.238 19.3438H81.294C81.5367 18.8958 81.8307 18.5528 82.176 18.3148C82.5213 18.0768 82.876 17.9578 83.24 17.9578C83.5667 17.9578 83.828 18.0044 84.024 18.0978L83.744 19.4978C83.6227 19.4604 83.5107 19.4324 83.408 19.4138C83.3053 19.3951 83.1793 19.3858 83.03 19.3858C82.7593 19.3858 82.4747 19.4908 82.176 19.7008C81.8773 19.9108 81.6207 20.2771 81.406 20.7998V24.9998H79.796ZM87.958 25.1678C87.482 25.1678 87.0387 25.0861 86.628 24.9228C86.2173 24.7594 85.858 24.5238 85.55 24.2158C85.242 23.9078 85.0017 23.5321 84.829 23.0888C84.6563 22.6454 84.57 22.1391 84.57 21.5698C84.57 21.0098 84.6586 20.5058 84.836 20.0578C85.0133 19.6098 85.249 19.2318 85.543 18.9238C85.837 18.6158 86.1753 18.3778 86.558 18.2098C86.9407 18.0418 87.3326 17.9578 87.734 17.9578C88.2007 17.9578 88.6113 18.0371 88.966 18.1958C89.3207 18.3544 89.617 18.5784 89.855 18.8678C90.093 19.1571 90.2726 19.5024 90.394 19.9038C90.5153 20.3051 90.576 20.7438 90.576 21.2198C90.576 21.3784 90.569 21.5278 90.555 21.6678C90.541 21.8078 90.5246 21.9198 90.506 22.0038H86.138C86.2127 22.6198 86.4296 23.0934 86.789 23.4248C87.1483 23.7561 87.608 23.9218 88.168 23.9218C88.4667 23.9218 88.7443 23.8774 89.001 23.7888C89.2577 23.7001 89.512 23.5764 89.764 23.4178L90.31 24.4258C89.9833 24.6404 89.6193 24.8178 89.218 24.9578C88.8167 25.0978 88.3967 25.1678 87.958 25.1678ZM86.124 20.9118H89.176C89.176 20.3798 89.0617 19.9621 88.833 19.6588C88.6043 19.3554 88.252 19.2038 87.776 19.2038C87.3653 19.2038 87.006 19.3484 86.698 19.6378C86.39 19.9271 86.1987 20.3518 86.124 20.9118Z" fill="white"/>
</svg>
