<svg width="281" height="297" viewBox="0 0 281 297" fill="none" xmlns="http://www.w3.org/2000/svg">
<path d="M2.76333 97.5969L30.1031 76.4909L36.2923 84.5082L19.402 97.5473L22.2185 101.196L29.7403 95.3889C33.5838 92.4217 37.1639 90.9758 40.4807 91.051C43.8043 91.073 46.66 92.6304 49.0476 95.7232C51.5279 98.9361 52.304 102.362 51.3759 106.002C50.4478 109.642 47.8969 113.073 43.7231 116.295L27.1031 129.125L2.76333 97.5969ZM37.2652 109.42C38.3162 108.608 38.9531 107.757 39.1759 106.866C39.4287 105.952 39.2306 105.075 38.5815 104.234C37.3298 102.613 35.5929 102.66 33.3709 104.375L27.9209 108.582L31.8153 113.627L37.2652 109.42Z" fill="#F4F4F4"/>
<path d="M47.5233 61.8925C50.7963 59.3658 54.2536 57.8229 57.8954 57.2639C61.5141 56.6748 65.0176 57.085 68.4061 58.4946C71.7714 59.8742 74.6826 62.1554 77.1398 65.3383C79.5969 68.5212 81.0784 71.9301 81.5843 75.5651C82.067 79.17 81.577 82.6633 80.1141 86.0449C78.6281 89.3965 76.2487 92.3357 72.9757 94.8624C69.9129 97.2268 66.7632 98.7958 63.5265 99.5692C60.2898 100.343 57.1027 100.311 53.965 99.4748L56.0515 88.3035C59.9041 89.259 63.1515 88.7167 65.7939 86.6768C67.2653 85.541 68.2332 84.2187 68.6978 82.7099C69.1924 81.1779 69.185 79.5543 68.6755 77.839L58.8566 85.4191L52.9455 77.7622L62.7194 70.2168C61.2353 69.3498 59.7013 68.9766 58.1171 69.0973C56.533 69.218 55.0353 69.8231 53.6241 70.9126C50.9817 72.9525 49.635 75.9569 49.5841 79.9259L38.2484 79.1164C38.2336 75.8691 39.01 72.7778 40.5776 69.8423C42.1453 66.9069 44.4605 64.257 47.5233 61.8925Z" fill="#F4F4F4"/>
<path d="M102.72 44.8717L124.561 53.8888L112.58 63.1379L97.7477 56.4019L94.775 58.6968L103.572 70.0921L92.9425 78.2981L68.6027 46.7695L79.2324 38.5636L88.3076 50.3192L91.5505 47.8157L89.1864 30.8792L100.266 22.3255L102.72 44.8717Z" fill="#F4F4F4"/>
<path d="M78.4687 140.166L69.2353 147.294L87.212 170.58L76.7625 178.647L58.7859 155.361L49.5525 162.489L43.1894 154.246L72.1056 131.923L78.4687 140.166Z" fill="#F4F4F4"/>
<path d="M105.776 105.93L111.444 139.437C112.122 143.419 111.932 146.991 110.876 150.155C109.85 153.295 108.031 155.874 105.418 157.89C103.407 159.443 101.04 160.599 98.3193 161.358L94.8855 151.789C96.4849 151.129 97.7049 150.475 98.5457 149.826C99.3264 149.223 99.8827 148.578 100.215 147.89C100.576 147.18 100.769 146.312 100.793 145.287L71.545 132.356L82.7602 123.698L99.2783 132.152L95.5067 113.858L105.776 105.93Z" fill="#F4F4F4"/>
<path d="M120.566 206.523C122.781 205.915 124.864 205.913 126.815 206.515C128.795 207.095 130.435 208.225 131.733 209.907C133.263 211.888 133.89 214.16 133.615 216.721C133.346 219.228 132.327 221.788 130.558 224.4C128.795 226.959 126.473 229.351 123.59 231.576C118.996 235.123 113.92 237.58 108.362 238.947L105.802 229.206C107.737 228.671 109.628 227.954 111.474 227.056C113.298 226.128 114.915 225.119 116.326 224.029C118.038 222.708 119.233 221.401 119.913 220.11C120.624 218.795 120.619 217.672 119.901 216.741C118.927 215.48 117.404 215.649 115.332 217.248L106.82 223.82L100.909 216.163L108.521 210.287C109.421 209.591 109.97 208.905 110.165 208.227C110.39 207.526 110.271 206.875 109.808 206.274C109.205 205.493 108.321 205.217 107.156 205.446C106.02 205.652 104.777 206.276 103.426 207.319C102.165 208.293 100.938 209.528 99.7445 211.024C98.5514 212.52 97.5492 214.108 96.738 215.789L87.5452 210.306C89.7998 206.025 92.9689 202.309 97.0526 199.156C99.7851 197.047 102.597 195.475 105.489 194.441C108.41 193.383 111.118 193.042 113.612 193.417C116.113 193.739 118.105 194.861 119.589 196.783C120.678 198.194 121.303 199.748 121.463 201.446C121.623 203.143 121.324 204.835 120.566 206.523Z" fill="#F4F4F4"/>
<path d="M162.385 187.609L168.574 195.627L142.361 215.863L118.021 184.335L143.649 164.55L149.838 172.567L134.66 184.285L137.511 187.978L150.843 177.686L156.754 185.343L143.422 195.635L146.621 199.779L162.385 187.609Z" fill="#F4F4F4"/>
<path d="M145.436 251.029C148.349 248.78 151.257 247.302 154.161 246.594C157.064 245.885 159.797 245.98 162.359 246.878C164.921 247.775 167.129 249.425 168.984 251.827C170.838 254.23 171.875 256.783 172.095 259.489C172.315 262.195 171.714 264.863 170.294 267.492C168.874 270.122 166.708 272.562 163.795 274.81L159.246 278.322L165.227 286.069L154.597 294.275L130.257 262.746L145.436 251.029ZM156.791 267.134C158.232 266.022 159.07 264.872 159.304 263.685C159.515 262.468 159.168 261.274 158.264 260.103C157.36 258.932 156.304 258.309 155.097 258.235C153.866 258.131 152.53 258.635 151.089 259.748L147.215 262.738L152.918 270.125L156.791 267.134Z" fill="#F4F4F4"/>
<path d="M193.851 213.653L199.519 247.16C200.196 251.141 200.007 254.714 198.951 257.877C197.925 261.018 196.106 263.596 193.493 265.613C191.482 267.166 189.115 268.322 186.394 269.081L182.96 259.511C184.56 258.852 185.78 258.197 186.621 257.548C187.401 256.946 187.958 256.301 188.289 255.613C188.651 254.902 188.844 254.035 188.868 253.01L159.62 240.079L170.835 231.421L187.353 239.875L183.582 221.58L193.851 213.653Z" fill="#F4F4F4"/>
<path d="M229.046 199.637L219.813 206.765L237.79 230.051L227.34 238.118L209.364 214.832L200.13 221.96L193.767 213.717L222.683 191.394L229.046 199.637Z" fill="#F4F4F4"/>
<path d="M266.499 209.037C263.166 211.611 259.63 213.238 255.892 213.92C252.13 214.572 248.521 214.242 245.066 212.932C241.617 211.569 238.664 209.296 236.207 206.113C233.75 202.93 232.31 199.513 231.888 195.862C231.472 192.157 232.067 188.583 233.673 185.139C235.256 181.664 237.714 178.641 241.047 176.068C244.11 173.703 247.259 172.134 250.496 171.361C253.733 170.587 256.92 170.619 260.058 171.455L257.971 182.627C254.119 181.671 250.871 182.213 248.229 184.253C246.007 185.969 244.776 188.068 244.538 190.553C244.276 193.007 245.072 195.436 246.927 197.838C248.781 200.24 250.941 201.64 253.404 202.038C255.845 202.406 258.177 201.733 260.399 200.017C263.041 197.978 264.388 194.973 264.439 191.004L275.774 191.814C275.789 195.061 275.013 198.152 273.445 201.088C271.877 204.023 269.562 206.673 266.499 209.037Z" fill="#F4F4F4"/>
</svg>
