<svg width="27" height="27" viewBox="0 0 27 27" fill="none" xmlns="http://www.w3.org/2000/svg">
<g clip-path="url(#clip0)">
<circle cx="16.5" cy="16.5" r="9.5" fill="#3B5998"/>
<path d="M13.7864 0.161133C6.6458 0.161133 0.857574 5.94935 0.857574 13.0899C0.857574 20.2305 6.6458 26.0187 13.7864 26.0187C20.9269 26.0187 26.7152 20.2305 26.7152 13.0899C26.7152 5.94935 20.9269 0.161133 13.7864 0.161133ZM13.7864 2.74689C19.4983 2.74689 24.1294 7.37799 24.1294 13.0899C24.1294 18.1766 20.4527 22.3963 15.6146 23.2612V17.014H18.6725L19.1271 13.4914H15.6348V11.2466C15.6348 10.2278 15.9187 9.53956 17.3797 9.53956H19.2256V6.39574C18.327 6.30395 17.4248 6.25932 16.5211 6.26191C13.8397 6.26191 12.0036 7.89849 12.0036 10.9031V13.4965H8.97342V17.0191H12.0036V23.2688C7.14316 22.4222 3.44333 18.1925 3.44333 13.0899C3.44333 7.37799 8.07443 2.74689 13.7864 2.74689Z" fill="black"/>
</g>
<defs>
<clipPath id="clip0">
<rect width="25.8576" height="25.8576" fill="white" transform="translate(0.857574 0.161133)"/>
</clipPath>
</defs>
</svg>
