<svg width="116" height="34" viewBox="0 0 116 34" fill="none" xmlns="http://www.w3.org/2000/svg">
<path d="M23.2184 15.6413L20.1593 13.8828L15.9683 16.9998L20.1593 20.1167L23.2287 18.3522C23.7073 18.0628 23.9929 17.5571 23.9929 16.9998C23.9929 16.4426 23.7073 15.9369 23.2184 15.6413Z" fill="#FFCE00"/>
<path d="M17.0279 16.9997C17.0233 17.0056 13.3223 21.742 13.3193 21.7458L8.49806 25.5251C8.20134 25.2298 8.02124 24.8291 8.02124 24.386V9.58727C8.02124 9.14434 8.20134 8.74352 8.49806 8.44824L13.3193 12.2536C13.3223 12.2575 17.0233 16.9938 17.0279 16.9997Z" fill="#00D3FF"/>
<path d="M17.0279 17.0002L15.9683 18.3607V15.6396L17.0279 17.0002Z" fill="#00C0F1"/>
<path d="M20.1643 13.8781L17.0278 17L8.49805 8.44854C8.60397 8.35359 8.70997 8.27976 8.82652 8.20593C9.3351 7.9212 9.93911 7.93171 10.4372 8.23761L15.9682 11.4734L20.1643 13.8781Z" fill="#00F076"/>
<path d="M20.1643 20.1218L15.9682 22.5266L10.4266 25.7469C10.1723 25.8945 9.89676 25.9789 9.61063 25.9789C9.34573 25.9789 9.08083 25.905 8.82652 25.7679C8.70997 25.6941 8.60397 25.6203 8.49805 25.5254L17.0278 17L20.1643 20.1218Z" fill="#F63448"/>
<path d="M33.064 12.9996V14.5036H32.24L32.152 12.7916V12.2156H32.392C32.4506 12.1942 32.5106 12.1489 32.572 12.0796C32.6333 12.0102 32.6946 11.9036 32.756 11.7596C32.8173 11.6156 32.88 11.4316 32.944 11.2076C33.008 10.9836 33.072 10.7062 33.136 10.3756C33.184 10.1302 33.2253 9.90625 33.26 9.70358C33.2946 9.50091 33.3293 9.29958 33.364 9.09958C33.3986 8.89958 33.4333 8.69425 33.468 8.48358C33.5026 8.27291 33.5413 8.03425 33.584 7.76758H36.464V12.2156H37.08V12.7916L36.992 14.5036H36.168V12.9996H33.064ZM33.968 10.5036C33.824 11.2716 33.6373 11.8422 33.408 12.2156H35.536V8.55158H34.304C34.272 8.73825 34.2426 8.91024 34.216 9.06758C34.1893 9.22491 34.164 9.37824 34.14 9.52758C34.116 9.67691 34.0906 9.82891 34.064 9.98358C34.0373 10.1382 34.0053 10.3116 33.968 10.5036ZM39.424 13.0956C39.1786 13.0956 38.944 13.0502 38.72 12.9596C38.496 12.8689 38.2973 12.7356 38.124 12.5596C37.9506 12.3836 37.8133 12.1676 37.712 11.9116C37.6106 11.6556 37.56 11.3649 37.56 11.0396C37.56 10.7142 37.6106 10.4236 37.712 10.1676C37.8133 9.91158 37.9506 9.69558 38.124 9.51958C38.2973 9.34358 38.496 9.20891 38.72 9.11558C38.944 9.02224 39.1786 8.97558 39.424 8.97558C39.6693 8.97558 39.9053 9.02224 40.132 9.11558C40.3586 9.20891 40.5573 9.34358 40.728 9.51958C40.8986 9.69558 41.036 9.91158 41.14 10.1676C41.244 10.4236 41.296 10.7142 41.296 11.0396C41.296 11.3649 41.244 11.6556 41.14 11.9116C41.036 12.1676 40.8986 12.3836 40.728 12.5596C40.5573 12.7356 40.3586 12.8689 40.132 12.9596C39.9053 13.0502 39.6693 13.0956 39.424 13.0956ZM39.424 12.3436C39.712 12.3436 39.9386 12.2249 40.104 11.9876C40.2693 11.7502 40.352 11.4342 40.352 11.0396C40.352 10.6396 40.2693 10.3209 40.104 10.0836C39.9386 9.84624 39.712 9.72758 39.424 9.72758C39.136 9.72758 38.9106 9.84624 38.748 10.0836C38.5853 10.3209 38.504 10.6396 38.504 11.0396C38.504 11.4342 38.5853 11.7502 38.748 11.9876C38.9106 12.2249 39.136 12.3436 39.424 12.3436ZM43.848 13.0956C43.5813 13.0956 43.332 13.0502 43.1 12.9596C42.868 12.8689 42.6666 12.7356 42.496 12.5596C42.3253 12.3836 42.192 12.1676 42.096 11.9116C42 11.6556 41.952 11.3649 41.952 11.0396C41.952 10.7142 42.0053 10.4236 42.112 10.1676C42.2186 9.91158 42.3626 9.69558 42.544 9.51958C42.7253 9.34358 42.9346 9.20891 43.172 9.11558C43.4093 9.02224 43.6586 8.97558 43.92 8.97558C44.176 8.97558 44.396 9.01824 44.58 9.10358C44.764 9.18891 44.928 9.29291 45.072 9.41558L44.624 10.0156C44.5173 9.92491 44.412 9.85424 44.308 9.80358C44.204 9.75291 44.0906 9.72758 43.968 9.72758C43.648 9.72758 43.3893 9.84624 43.192 10.0836C42.9946 10.3209 42.896 10.6396 42.896 11.0396C42.896 11.4342 42.9933 11.7502 43.188 11.9876C43.3826 12.2249 43.6346 12.3436 43.944 12.3436C44.0986 12.3436 44.244 12.3102 44.38 12.2436C44.516 12.1769 44.64 12.0982 44.752 12.0076L45.128 12.6156C44.9413 12.7756 44.7373 12.8956 44.516 12.9756C44.2946 13.0556 44.072 13.0956 43.848 13.0956ZM46.76 12.9996V9.79958H45.528V9.07158H48.92V9.79958H47.688V12.9996H46.76ZM49.976 14.6156C49.8693 14.6156 49.776 14.6089 49.696 14.5956C49.616 14.5822 49.5386 14.5622 49.464 14.5356L49.632 13.8156C49.6693 13.8262 49.7133 13.8382 49.764 13.8516C49.8146 13.8649 49.864 13.8716 49.912 13.8716C50.12 13.8716 50.2866 13.8089 50.412 13.6836C50.5373 13.5582 50.632 13.3969 50.696 13.1996L50.768 12.9516L49.224 9.07158H50.16L50.84 10.9996C50.8986 11.1702 50.956 11.3502 51.012 11.5396C51.068 11.7289 51.1253 11.9169 51.184 12.1036H51.216C51.264 11.9222 51.3133 11.7369 51.364 11.5476C51.4146 11.3582 51.464 11.1756 51.512 10.9996L52.104 9.07158H52.992L51.568 13.1756C51.488 13.3996 51.4 13.5996 51.304 13.7756C51.208 13.9516 51.0973 14.1022 50.972 14.2276C50.8466 14.3529 50.7026 14.4489 50.54 14.5156C50.3773 14.5822 50.1893 14.6156 49.976 14.6156ZM53.672 12.9996V9.07158H57.008V12.9996H56.088V9.79958H54.592V12.9996H53.672ZM58.184 12.9996V9.07158H59.104V10.5756H60.672V9.07158H61.592V12.9996H60.672V11.3836H59.104V12.9996H58.184ZM64.368 13.0956C64.1226 13.0956 63.888 13.0502 63.664 12.9596C63.44 12.8689 63.2413 12.7356 63.068 12.5596C62.8946 12.3836 62.7573 12.1676 62.656 11.9116C62.5546 11.6556 62.504 11.3649 62.504 11.0396C62.504 10.7142 62.5546 10.4236 62.656 10.1676C62.7573 9.91158 62.8946 9.69558 63.068 9.51958C63.2413 9.34358 63.44 9.20891 63.664 9.11558C63.888 9.02224 64.1226 8.97558 64.368 8.97558C64.6133 8.97558 64.8493 9.02224 65.076 9.11558C65.3026 9.20891 65.5013 9.34358 65.672 9.51958C65.8426 9.69558 65.98 9.91158 66.084 10.1676C66.188 10.4236 66.24 10.7142 66.24 11.0396C66.24 11.3649 66.188 11.6556 66.084 11.9116C65.98 12.1676 65.8426 12.3836 65.672 12.5596C65.5013 12.7356 65.3026 12.8689 65.076 12.9596C64.8493 13.0502 64.6133 13.0956 64.368 13.0956ZM64.368 12.3436C64.656 12.3436 64.8826 12.2249 65.048 11.9876C65.2133 11.7502 65.296 11.4342 65.296 11.0396C65.296 10.6396 65.2133 10.3209 65.048 10.0836C64.8826 9.84624 64.656 9.72758 64.368 9.72758C64.08 9.72758 63.8546 9.84624 63.692 10.0836C63.5293 10.3209 63.448 10.6396 63.448 11.0396C63.448 11.4342 63.5293 11.7502 63.692 11.9876C63.8546 12.2249 64.08 12.3436 64.368 12.3436ZM68.752 12.9996V9.07158H70.344C70.5626 9.07158 70.764 9.08891 70.948 9.12358C71.132 9.15824 71.292 9.21558 71.428 9.29558C71.564 9.37558 71.6706 9.48091 71.748 9.61158C71.8253 9.74225 71.864 9.90091 71.864 10.0876C71.864 10.2796 71.8093 10.4489 71.7 10.5956C71.5906 10.7422 71.4266 10.8476 71.208 10.9116V10.9436C71.4426 11.0022 71.6373 11.1036 71.792 11.2476C71.9466 11.3916 72.024 11.5996 72.024 11.8716C72.024 12.0689 71.9826 12.2382 71.9 12.3796C71.8173 12.5209 71.704 12.6382 71.56 12.7316C71.416 12.8249 71.2466 12.8929 71.052 12.9356C70.8573 12.9782 70.648 12.9996 70.424 12.9996H68.752ZM69.656 10.6636H70.256C70.512 10.6636 70.696 10.6209 70.808 10.5356C70.92 10.4502 70.976 10.3329 70.976 10.1836C70.976 10.0289 70.9226 9.90891 70.816 9.82358C70.7093 9.73824 70.5306 9.69558 70.28 9.69558H69.656V10.6636ZM69.656 12.3756H70.36C70.6266 12.3756 70.82 12.3249 70.94 12.2236C71.06 12.1222 71.12 11.9862 71.12 11.8156C71.12 11.6556 71.056 11.5276 70.928 11.4316C70.8 11.3356 70.6 11.2876 70.328 11.2876H69.656V12.3756Z" fill="white"/>
<path d="M36.998 25.1682C36.382 25.1682 35.8104 25.0655 35.283 24.8602C34.7557 24.6549 34.2984 24.3515 33.911 23.9502C33.5237 23.5489 33.2227 23.0542 33.008 22.4662C32.7934 21.8782 32.686 21.2062 32.686 20.4502C32.686 19.7035 32.798 19.0339 33.022 18.4412C33.246 17.8485 33.5517 17.3469 33.939 16.9362C34.3264 16.5255 34.7837 16.2129 35.311 15.9982C35.8384 15.7835 36.4054 15.6762 37.012 15.6762C37.6654 15.6762 38.2184 15.7952 38.671 16.0332C39.1237 16.2712 39.4947 16.5395 39.784 16.8382L38.916 17.8882C38.6827 17.6642 38.4237 17.4752 38.139 17.3212C37.8544 17.1672 37.4974 17.0902 37.068 17.0902C36.6574 17.0902 36.2864 17.1672 35.955 17.3212C35.6237 17.4752 35.339 17.6945 35.101 17.9792C34.863 18.2639 34.6787 18.6115 34.548 19.0222C34.4174 19.4329 34.352 19.8949 34.352 20.4082C34.352 21.4536 34.5877 22.2725 35.059 22.8652C35.5304 23.4579 36.228 23.7542 37.152 23.7542C37.4134 23.7542 37.6607 23.7192 37.894 23.6492C38.1274 23.5792 38.3187 23.4789 38.468 23.3482V21.3742H36.732V20.0442H39.924V24.0762C39.616 24.3842 39.2077 24.6432 38.699 24.8532C38.1904 25.0632 37.6234 25.1682 36.998 25.1682ZM44.628 25.1682C44.1987 25.1682 43.788 25.0889 43.396 24.9302C43.004 24.7715 42.6564 24.5382 42.353 24.2302C42.0497 23.9222 41.8094 23.5442 41.632 23.0962C41.4547 22.6482 41.366 22.1395 41.366 21.5702C41.366 21.0009 41.4547 20.4922 41.632 20.0442C41.8094 19.5962 42.0497 19.2182 42.353 18.9102C42.6564 18.6022 43.004 18.3665 43.396 18.2032C43.788 18.0399 44.1987 17.9582 44.628 17.9582C45.0574 17.9582 45.4704 18.0399 45.867 18.2032C46.2637 18.3665 46.6114 18.6022 46.91 18.9102C47.2087 19.2182 47.449 19.5962 47.631 20.0442C47.813 20.4922 47.904 21.0009 47.904 21.5702C47.904 22.1395 47.813 22.6482 47.631 23.0962C47.449 23.5442 47.2087 23.9222 46.91 24.2302C46.6114 24.5382 46.2637 24.7715 45.867 24.9302C45.4704 25.0889 45.0574 25.1682 44.628 25.1682ZM44.628 23.8522C45.132 23.8522 45.5287 23.6445 45.818 23.2292C46.1074 22.8139 46.252 22.2609 46.252 21.5702C46.252 20.8702 46.1074 20.3125 45.818 19.8972C45.5287 19.4819 45.132 19.2742 44.628 19.2742C44.124 19.2742 43.7297 19.4819 43.445 19.8972C43.1604 20.3125 43.018 20.8702 43.018 21.5702C43.018 22.2609 43.1604 22.8139 43.445 23.2292C43.7297 23.6445 44.124 23.8522 44.628 23.8522ZM52.314 25.1682C51.8847 25.1682 51.474 25.0889 51.082 24.9302C50.69 24.7715 50.3424 24.5382 50.039 24.2302C49.7357 23.9222 49.4954 23.5442 49.318 23.0962C49.1407 22.6482 49.052 22.1395 49.052 21.5702C49.052 21.0009 49.1407 20.4922 49.318 20.0442C49.4954 19.5962 49.7357 19.2182 50.039 18.9102C50.3424 18.6022 50.69 18.3665 51.082 18.2032C51.474 18.0399 51.8847 17.9582 52.314 17.9582C52.7434 17.9582 53.1564 18.0399 53.553 18.2032C53.9497 18.3665 54.2974 18.6022 54.596 18.9102C54.8947 19.2182 55.135 19.5962 55.317 20.0442C55.499 20.4922 55.59 21.0009 55.59 21.5702C55.59 22.1395 55.499 22.6482 55.317 23.0962C55.135 23.5442 54.8947 23.9222 54.596 24.2302C54.2974 24.5382 53.9497 24.7715 53.553 24.9302C53.1564 25.0889 52.7434 25.1682 52.314 25.1682ZM52.314 23.8522C52.818 23.8522 53.2147 23.6445 53.504 23.2292C53.7934 22.8139 53.938 22.2609 53.938 21.5702C53.938 20.8702 53.7934 20.3125 53.504 19.8972C53.2147 19.4819 52.818 19.2742 52.314 19.2742C51.81 19.2742 51.4157 19.4819 51.131 19.8972C50.8464 20.3125 50.704 20.8702 50.704 21.5702C50.704 22.2609 50.8464 22.8139 51.131 23.2292C51.4157 23.6445 51.81 23.8522 52.314 23.8522ZM59.58 28.0382C59.1694 28.0382 58.789 28.0009 58.439 27.9262C58.089 27.8515 57.788 27.7395 57.536 27.5902C57.284 27.4409 57.0857 27.2542 56.941 27.0302C56.7964 26.8062 56.724 26.5449 56.724 26.2462C56.724 25.9569 56.808 25.6885 56.976 25.4412C57.144 25.1939 57.3867 24.9722 57.704 24.7762V24.7202C57.5267 24.6082 57.3797 24.4589 57.263 24.2722C57.1464 24.0855 57.088 23.8522 57.088 23.5722C57.088 23.3015 57.165 23.0565 57.319 22.8372C57.473 22.6179 57.648 22.4382 57.844 22.2982V22.2422C57.6107 22.0649 57.403 21.8199 57.221 21.5072C57.039 21.1945 56.948 20.8329 56.948 20.4222C56.948 20.0302 57.0227 19.6802 57.172 19.3722C57.3214 19.0642 57.5197 18.8052 57.767 18.5952C58.0144 18.3852 58.3014 18.2265 58.628 18.1192C58.9547 18.0119 59.3 17.9582 59.664 17.9582C59.8507 17.9582 60.0304 17.9745 60.203 18.0072C60.3757 18.0399 60.532 18.0795 60.672 18.1262H63.136V19.3162H61.876C61.988 19.4469 62.0814 19.6125 62.156 19.8132C62.2307 20.0139 62.268 20.2355 62.268 20.4782C62.268 20.8609 62.2004 21.1969 62.065 21.4862C61.9297 21.7755 61.7454 22.0182 61.512 22.2142C61.2787 22.4102 61.0034 22.5595 60.686 22.6622C60.3687 22.7649 60.028 22.8162 59.664 22.8162C59.5147 22.8162 59.3607 22.8022 59.202 22.7742C59.0434 22.7462 58.8847 22.6995 58.726 22.6342C58.6234 22.7275 58.5417 22.8209 58.481 22.9142C58.4204 23.0075 58.39 23.1335 58.39 23.2922C58.39 23.4882 58.4717 23.6422 58.635 23.7542C58.7984 23.8662 59.09 23.9222 59.51 23.9222H60.728C61.5587 23.9222 62.1864 24.0552 62.611 24.3212C63.0357 24.5872 63.248 25.0189 63.248 25.6162C63.248 25.9522 63.1617 26.2695 62.989 26.5682C62.8164 26.8669 62.5714 27.1235 62.254 27.3382C61.9367 27.5529 61.5517 27.7232 61.099 27.8492C60.6464 27.9752 60.14 28.0382 59.58 28.0382ZM59.664 21.8082C59.9907 21.8082 60.2707 21.6892 60.504 21.4512C60.7374 21.2132 60.854 20.8702 60.854 20.4222C60.854 19.9929 60.7397 19.6592 60.511 19.4212C60.2824 19.1832 60 19.0642 59.664 19.0642C59.328 19.0642 59.0434 19.1809 58.81 19.4142C58.5767 19.6475 58.46 19.9835 58.46 20.4222C58.46 20.8702 58.5767 21.2132 58.81 21.4512C59.0434 21.6892 59.328 21.8082 59.664 21.8082ZM59.832 26.9882C60.392 26.9882 60.8424 26.8785 61.183 26.6592C61.5237 26.4399 61.694 26.1809 61.694 25.8822C61.694 25.6115 61.589 25.4295 61.379 25.3362C61.169 25.2429 60.868 25.1962 60.476 25.1962H59.538C59.1647 25.1962 58.852 25.1635 58.6 25.0982C58.2454 25.3689 58.068 25.6722 58.068 26.0082C58.068 26.3162 58.2244 26.5565 58.537 26.7292C58.8497 26.9019 59.2814 26.9882 59.832 26.9882ZM66.034 25.1682C65.4554 25.1682 65.0494 24.9955 64.816 24.6502C64.5827 24.3049 64.466 23.8335 64.466 23.2362V15.1162H66.076V23.3202C66.076 23.5162 66.1134 23.6539 66.188 23.7332C66.2627 23.8125 66.342 23.8522 66.426 23.8522H66.531C66.5637 23.8522 66.6127 23.8429 66.678 23.8242L66.888 25.0282C66.6734 25.1215 66.3887 25.1682 66.034 25.1682ZM71.2 25.1682C70.724 25.1682 70.2807 25.0865 69.87 24.9232C69.4594 24.7599 69.1 24.5242 68.792 24.2162C68.484 23.9082 68.2437 23.5325 68.071 23.0892C67.8984 22.6459 67.812 22.1395 67.812 21.5702C67.812 21.0102 67.9007 20.5062 68.078 20.0582C68.2554 19.6102 68.491 19.2322 68.785 18.9242C69.079 18.6162 69.4174 18.3782 69.8 18.2102C70.1827 18.0422 70.5747 17.9582 70.976 17.9582C71.4427 17.9582 71.8534 18.0375 72.208 18.1962C72.5627 18.3549 72.859 18.5789 73.097 18.8682C73.335 19.1575 73.5147 19.5029 73.636 19.9042C73.7574 20.3055 73.818 20.7442 73.818 21.2202C73.818 21.3789 73.811 21.5282 73.797 21.6682C73.783 21.8082 73.7667 21.9202 73.748 22.0042H69.38C69.4547 22.6202 69.6717 23.0939 70.031 23.4252C70.3904 23.7565 70.85 23.9222 71.41 23.9222C71.7087 23.9222 71.9864 23.8779 72.243 23.7892C72.4997 23.7005 72.754 23.5769 73.006 23.4182L73.552 24.4262C73.2254 24.6409 72.8614 24.8182 72.46 24.9582C72.0587 25.0982 71.6387 25.1682 71.2 25.1682ZM69.366 20.9122H72.418C72.418 20.3802 72.3037 19.9625 72.075 19.6592C71.8464 19.3559 71.494 19.2042 71.018 19.2042C70.6074 19.2042 70.248 19.3489 69.94 19.6382C69.632 19.9275 69.4407 20.3522 69.366 20.9122ZM78.298 25.0002V15.8442H81.182C81.686 15.8442 82.155 15.8909 82.589 15.9842C83.023 16.0775 83.3987 16.2362 83.716 16.4602C84.0334 16.6842 84.2807 16.9759 84.458 17.3352C84.6354 17.6945 84.724 18.1402 84.724 18.6722C84.724 19.1762 84.6354 19.6149 84.458 19.9882C84.2807 20.3615 84.0357 20.6719 83.723 20.9192C83.4104 21.1665 83.0417 21.3485 82.617 21.4652C82.1924 21.5819 81.7327 21.6402 81.238 21.6402H79.922V25.0002H78.298ZM79.922 20.3382H81.112C82.456 20.3382 83.128 19.7829 83.128 18.6722C83.128 18.0935 82.953 17.6945 82.603 17.4752C82.253 17.2559 81.7374 17.1462 81.056 17.1462H79.922V20.3382ZM87.874 25.1682C87.2954 25.1682 86.8894 24.9955 86.656 24.6502C86.4227 24.3049 86.306 23.8335 86.306 23.2362V15.1162H87.916V23.3202C87.916 23.5162 87.9534 23.6539 88.028 23.7332C88.1027 23.8125 88.182 23.8522 88.266 23.8522H88.371C88.4037 23.8522 88.4527 23.8429 88.518 23.8242L88.728 25.0282C88.5134 25.1215 88.2287 25.1682 87.874 25.1682ZM91.766 25.1682C91.1594 25.1682 90.6694 24.9839 90.296 24.6152C89.9227 24.2465 89.736 23.7589 89.736 23.1522C89.736 22.7882 89.813 22.4639 89.967 22.1792C90.121 21.8945 90.3637 21.6495 90.695 21.4442C91.0264 21.2389 91.4464 21.0662 91.955 20.9262C92.4637 20.7862 93.0727 20.6789 93.782 20.6042C93.7727 20.4269 93.747 20.2565 93.705 20.0932C93.663 19.9299 93.593 19.7852 93.495 19.6592C93.397 19.5332 93.2687 19.4352 93.11 19.3652C92.9514 19.2952 92.7554 19.2602 92.522 19.2602C92.186 19.2602 91.857 19.3255 91.535 19.4562C91.213 19.5869 90.898 19.7455 90.59 19.9322L90.002 18.8542C90.3847 18.6115 90.814 18.4015 91.29 18.2242C91.766 18.0469 92.2794 17.9582 92.83 17.9582C93.6887 17.9582 94.3304 18.2125 94.755 18.7212C95.1797 19.2299 95.392 19.9649 95.392 20.9262V25.0002H94.062L93.95 24.2442H93.894C93.586 24.5055 93.257 24.7249 92.907 24.9022C92.557 25.0795 92.1767 25.1682 91.766 25.1682ZM92.284 23.9082C92.564 23.9082 92.8184 23.8429 93.047 23.7122C93.2757 23.5815 93.5207 23.3949 93.782 23.1522V21.6122C93.3154 21.6682 92.9234 21.7429 92.606 21.8362C92.2887 21.9295 92.032 22.0345 91.836 22.1512C91.64 22.2679 91.5 22.4009 91.416 22.5502C91.332 22.6995 91.29 22.8582 91.29 23.0262C91.29 23.3342 91.3834 23.5582 91.57 23.6982C91.7567 23.8382 91.9947 23.9082 92.284 23.9082ZM97.786 27.8282C97.5994 27.8282 97.436 27.8165 97.296 27.7932C97.156 27.7699 97.0207 27.7349 96.89 27.6882L97.184 26.4282C97.2494 26.4469 97.3264 26.4679 97.415 26.4912C97.5037 26.5145 97.59 26.5262 97.674 26.5262C98.038 26.5262 98.3297 26.4165 98.549 26.1972C98.7684 25.9779 98.934 25.6955 99.046 25.3502L99.172 24.9162L96.47 18.1262H98.108L99.298 21.5002C99.4007 21.7989 99.501 22.1139 99.599 22.4452C99.697 22.7765 99.7974 23.1055 99.9 23.4322H99.956C100.04 23.1149 100.126 22.7905 100.215 22.4592C100.304 22.1279 100.39 21.8082 100.474 21.5002L101.51 18.1262H103.064L100.572 25.3082C100.432 25.7002 100.278 26.0502 100.11 26.3582C99.942 26.6662 99.7484 26.9299 99.529 27.1492C99.3097 27.3685 99.0577 27.5365 98.773 27.6532C98.4884 27.7699 98.1594 27.8282 97.786 27.8282Z" fill="white"/>
</svg>
