<svg width="26" height="26" viewBox="0 0 26 26" fill="none" xmlns="http://www.w3.org/2000/svg">
<path d="M13 26C20.1798 26 26 20.1798 26 13C26 5.82021 20.1798 0 13 0C5.82021 0 0 5.82021 0 13C0 20.1798 5.82021 26 13 26Z" fill="#D6001C"/>
<path d="M7.39411 7.13281V11.555C8.0674 10.7522 8.87448 10.3481 9.81048 10.3481C10.2926 10.3481 10.7243 10.4402 11.1116 10.6228C11.4999 10.8042 11.7903 11.0371 11.9864 11.3199C12.1835 11.6054 12.3168 11.9179 12.3888 12.2624C12.4603 12.6053 12.4961 13.1388 12.4961 13.8625V18.5907H10.4042V14.3321C10.4042 13.4871 10.3662 12.9519 10.2866 12.7244C10.212 12.5016 10.064 12.3106 9.86682 12.1828C9.66532 12.0468 9.41453 11.9796 9.11173 11.9796C8.76507 11.9796 8.45415 12.0663 8.18386 12.2386C7.90761 12.4119 7.70936 12.6708 7.58369 13.0169C7.45586 13.3636 7.39194 13.8755 7.39411 14.5531L7.39194 18.5907H5.30273V7.13281H7.39465H7.39411ZM15.6312 7.13281V11.555C16.3051 10.7522 17.1116 10.3481 18.0471 10.3481C18.5275 10.3481 18.9625 10.4402 19.3503 10.6228C19.7371 10.8042 20.0274 11.0371 20.2224 11.3199C20.4192 11.6035 20.5561 11.9242 20.6249 12.2624C20.6969 12.6053 20.7327 13.1388 20.7327 13.8625V18.5907H18.6429V14.3321C18.6429 13.4871 18.6034 12.9519 18.5237 12.7244C18.4491 12.5013 18.3007 12.3102 18.1029 12.1828C17.9035 12.0468 17.6506 11.9796 17.3478 11.9796C17.0017 11.9796 16.6907 12.0663 16.4199 12.2386C16.1474 12.4119 15.9481 12.6708 15.8208 13.0169C15.6952 13.3636 15.6312 13.8755 15.6312 14.5531V18.5907H13.542V7.13281H15.6312Z" fill="#FEFEFE"/>
</svg>
