<svg width="27" height="27" viewBox="0 0 27 27" fill="none" xmlns="http://www.w3.org/2000/svg">
<g clip-path="url(#clip0)">
<ellipse cx="16.6723" cy="15.9757" rx="10.1583" ry="10.1583" fill="#B43569"/>
<path d="M8.75851 1.77734C5.29305 1.77734 2.47368 4.59672 2.47368 8.06217V18.1179C2.47368 21.5834 5.29305 24.4027 8.75851 24.4027H18.8142C22.2797 24.4027 25.0991 21.5834 25.0991 18.1179V8.06217C25.0991 4.59672 22.2797 1.77734 18.8142 1.77734H8.75851ZM8.75851 4.29128H18.8142C20.8933 4.29128 22.5851 5.98315 22.5851 8.06217V18.1179C22.5851 20.1969 20.8933 21.8888 18.8142 21.8888H8.75851C6.67949 21.8888 4.98761 20.1969 4.98761 18.1179V8.06217C4.98761 5.98315 6.67949 4.29128 8.75851 4.29128ZM20.0712 5.54824C19.7378 5.54824 19.4181 5.68067 19.1824 5.9164C18.9467 6.15213 18.8142 6.47184 18.8142 6.80521C18.8142 7.13858 18.9467 7.45829 19.1824 7.69402C19.4181 7.92974 19.7378 8.06217 20.0712 8.06217C20.4046 8.06217 20.7243 7.92974 20.96 7.69402C21.1957 7.45829 21.3282 7.13858 21.3282 6.80521C21.3282 6.47184 21.1957 6.15213 20.96 5.9164C20.7243 5.68067 20.4046 5.54824 20.0712 5.54824ZM13.7864 6.80521C10.3209 6.80521 7.50154 9.62458 7.50154 13.09C7.50154 16.5555 10.3209 19.3749 13.7864 19.3749C17.2518 19.3749 20.0712 16.5555 20.0712 13.09C20.0712 9.62458 17.2518 6.80521 13.7864 6.80521ZM13.7864 9.31914C15.8654 9.31914 17.5573 11.011 17.5573 13.09C17.5573 15.1691 15.8654 16.8609 13.7864 16.8609C11.7074 16.8609 10.0155 15.1691 10.0155 13.09C10.0155 11.011 11.7074 9.31914 13.7864 9.31914Z" fill="black"/>
</g>
<defs>
<clipPath id="clip0">
<rect width="25.8576" height="25.8576" fill="white" transform="translate(0.857574 0.161133)"/>
</clipPath>
</defs>
</svg>
