<svg width="194" height="71" viewBox="0 0 194 71" fill="none" xmlns="http://www.w3.org/2000/svg">
<path fill-rule="evenodd" clip-rule="evenodd" d="M26.773 41.4661L18.9972 30.2079H18.5364H10.4123V41.4661H1.07985V1.05517H18.5327C22.1032 1.05517 25.2055 1.65153 27.8361 2.84426C30.4668 4.03699 32.4914 5.73153 33.9138 7.92426C35.3362 10.117 36.0437 12.717 36.0437 15.717C36.0437 18.7206 35.3253 21.3061 33.8848 23.4806C32.4443 25.6552 30.4014 27.3206 27.749 28.4734L36.7948 41.4624H26.773V41.4661ZM26.5988 15.7206C26.5988 13.4515 25.8695 11.7097 24.4109 10.4952C22.9522 9.28426 20.8187 8.67699 18.0175 8.67699H10.4123V22.7643H18.0175C20.8223 22.7643 22.9522 22.1497 24.4109 20.917C25.8695 19.6843 26.5988 17.9533 26.5988 15.7206ZM59.6904 42.1606C55.5031 42.1606 51.7295 41.2552 48.3696 39.4479C45.0096 37.6406 42.379 35.1461 40.4777 31.9715C38.5764 28.797 37.6257 25.2261 37.6257 21.2624C37.6257 17.2988 38.5764 13.7279 40.4777 10.5534C42.379 7.37881 45.0096 4.88789 48.3696 3.07698C51.7295 1.26971 55.5031 0.364258 59.6904 0.364258C63.8776 0.364258 67.6403 1.26971 70.9821 3.07698C74.324 4.88426 76.9546 7.37881 78.874 10.5534C80.7935 13.7279 81.755 17.2988 81.755 21.2624C81.755 25.2261 80.7935 28.797 78.874 31.9715C76.9546 35.1461 74.324 37.637 70.9821 39.4479C67.6403 41.2552 63.8776 42.1606 59.6904 42.1606ZM59.6904 34.1933C62.0706 34.1933 64.2223 33.6443 66.1418 32.5497C68.0612 31.4515 69.5707 29.9243 70.6628 27.9606C71.7586 25.997 72.3029 23.7643 72.3029 21.2624C72.3029 18.7606 71.755 16.5279 70.6628 14.5643C69.567 12.6006 68.0612 11.0734 66.1418 9.97517C64.2223 8.87699 62.0706 8.33153 59.6904 8.33153C57.3101 8.33153 55.1584 8.88062 53.239 9.97517C51.3195 11.0734 49.8101 12.6006 48.7179 14.5643C47.6221 16.5279 47.0778 18.7606 47.0778 21.2624C47.0778 23.7643 47.6257 25.997 48.7179 27.9606C49.8137 29.9243 51.3195 31.4515 53.239 32.5497C55.1584 33.6443 57.3101 34.1933 59.6904 34.1933ZM105.627 42.1606C101.439 42.1606 97.6695 41.2552 94.3059 39.4479C90.9459 37.6406 88.3153 35.1461 86.414 31.9715C84.5127 28.797 83.562 25.2261 83.562 21.2624C83.562 17.2988 84.5127 13.7279 86.414 10.5534C88.3153 7.37881 90.9459 4.88789 94.3059 3.07698C97.6659 1.26971 101.439 0.364258 105.627 0.364258C109.814 0.364258 113.577 1.26971 116.918 3.07698C120.26 4.88426 122.891 7.37881 124.81 10.5534C126.73 13.7279 127.691 17.2988 127.691 21.2624C127.691 25.2261 126.73 28.797 124.81 31.9715C122.891 35.1461 120.26 37.637 116.918 39.4479C113.577 41.2552 109.81 42.1606 105.627 42.1606ZM105.627 34.1933C108.007 34.1933 110.159 33.6443 112.078 32.5497C113.998 31.4515 115.507 29.9243 116.599 27.9606C117.695 25.997 118.239 23.7643 118.239 21.2624C118.239 18.7606 117.691 16.5279 116.599 14.5643C115.503 12.6006 113.998 11.0734 112.078 9.97517C110.159 8.87699 108.007 8.33153 105.627 8.33153C103.246 8.33153 101.095 8.88062 99.1753 9.97517C97.2558 11.0734 95.7464 12.6006 94.6542 14.5643C93.5584 16.5279 93.0142 18.7606 93.0142 21.2624C93.0142 23.7643 93.5621 25.997 94.6542 27.9606C95.75 29.9243 97.2558 31.4515 99.1753 32.5497C101.095 33.6443 103.246 34.1933 105.627 34.1933ZM138.083 8.67699V41.4697H147.416V8.67699H160.318V1.05517H125.18V8.67699H138.083ZM176.759 42.1606C173.573 42.1606 170.489 41.7279 167.514 40.8624C164.538 39.997 162.147 38.8697 160.34 37.4843L163.508 30.4406C165.235 31.7097 167.292 32.7315 169.673 33.4988C172.053 34.2697 174.433 34.6552 176.817 34.6552C179.466 34.6552 181.425 34.2624 182.692 33.4734C183.958 32.6843 184.593 31.637 184.593 30.3279C184.593 29.3643 184.219 28.5679 183.468 27.9315C182.721 27.2952 181.759 26.7861 180.587 26.4006C179.415 26.0152 177.833 25.5933 175.834 25.1315C172.76 24.4006 170.246 23.6697 168.287 22.9388C166.327 22.2079 164.647 21.0333 163.247 19.4188C161.846 17.8006 161.146 15.6479 161.146 12.9533C161.146 10.6043 161.781 8.48062 163.047 6.57517C164.313 4.66971 166.226 3.16062 168.78 2.04426C171.334 0.927895 174.455 0.371532 178.141 0.371532C180.714 0.371532 183.229 0.680621 185.689 1.29517C188.145 1.90971 190.297 2.79699 192.14 3.94971L189.259 11.0515C185.533 8.93517 181.81 7.87699 178.083 7.87699C175.471 7.87699 173.541 8.2988 172.292 9.14607C171.044 9.99335 170.42 11.1097 170.42 12.4952C170.42 13.8806 171.139 14.9097 172.579 15.5824C174.02 16.2552 176.218 16.9206 179.176 17.5752C182.249 18.3061 184.763 19.037 186.723 19.7679C188.682 20.4988 190.362 21.6552 191.763 23.2333C193.163 24.8115 193.864 26.9461 193.864 29.6406C193.864 31.9497 193.221 34.0588 191.933 35.9606C190.645 37.8661 188.718 39.3752 186.142 40.4915C183.577 41.6006 180.446 42.1606 176.759 42.1606ZM55.7898 48.0843H139.165V50.4515H55.7898V48.0843ZM53.297 56.8152C54.9589 56.8152 56.276 57.2988 57.2448 58.2624C58.2172 59.2297 58.7034 60.6588 58.7034 62.557V70.1715H56.3123V62.8297C56.3123 61.5497 56.0184 60.5824 55.4269 59.9315C54.8355 59.2806 53.9937 58.957 52.8979 58.957C51.686 58.957 50.7208 59.3352 50.006 60.0915C49.2912 60.8479 48.9356 61.9352 48.9356 63.3497V70.1679H46.5445V62.8261C46.5445 61.5461 46.2506 60.5788 45.6591 59.9279C45.0677 59.277 44.2259 58.9534 43.1301 58.9534C41.9182 58.9534 40.953 59.3315 40.2382 60.0879C39.5234 60.8443 39.1678 61.9315 39.1678 63.3461V70.1643H36.7766V56.9279H39.0698V58.8988C39.5524 58.2152 40.1838 57.6952 40.9639 57.3388C41.744 56.9824 42.633 56.8006 43.6308 56.8006C44.6613 56.8006 45.5757 57.0079 46.3703 57.4261C47.1686 57.8406 47.7818 58.4515 48.2136 59.2479C48.7107 58.4806 49.4037 57.8843 50.2927 57.4515C51.1816 57.0334 52.1831 56.8152 53.297 56.8152ZM75.1258 63.6334C75.1258 63.8152 75.1077 64.0588 75.0751 64.357H64.3602C64.509 65.5206 65.0206 66.4588 65.8914 67.1679C66.7622 67.877 67.8472 68.2297 69.1425 68.2297C70.7209 68.2297 71.9909 67.6988 72.956 66.6297L74.2768 68.1788C73.6781 68.877 72.9343 69.4115 72.0453 69.7752C71.1563 70.1424 70.1657 70.3243 69.0663 70.3243C67.6694 70.3243 66.4321 70.037 65.3544 69.4624C64.2731 68.8879 63.4386 68.0843 62.8508 67.0515C62.2593 66.0188 61.9654 64.8552 61.9654 63.557C61.9654 62.2734 62.2521 61.117 62.8254 60.0843C63.3987 59.0515 64.186 58.2479 65.1911 57.6733C66.1962 57.0988 67.3283 56.8115 68.591 56.8115C69.8537 56.8115 70.9785 57.0988 71.9655 57.6733C72.9524 58.2479 73.7253 59.0515 74.284 60.0843C74.8465 61.117 75.1258 62.3024 75.1258 63.6334ZM68.5946 58.837C67.448 58.837 66.4901 59.1861 65.7172 59.8843C64.9444 60.5824 64.4908 61.4988 64.3602 62.6297H72.8327C72.6984 61.5133 72.2485 60.6043 71.4756 59.8952C70.7028 59.1934 69.7412 58.837 68.5946 58.837ZM85.4887 56.8152C87.1651 56.8152 88.5004 57.3024 89.4873 58.277C90.4742 59.2515 90.9713 60.677 90.9713 62.5606V70.1752H88.5802V62.8333C88.5802 61.5533 88.2718 60.5861 87.6586 59.9352C87.0453 59.2843 86.1636 58.9606 85.017 58.9606C83.7217 58.9606 82.6984 59.3388 81.951 60.0952C81.2035 60.8515 80.8298 61.9388 80.8298 63.3533V70.1715H78.4386V56.9352H80.7318V58.9315C81.2144 58.2479 81.8639 57.7243 82.6876 57.357C83.5076 56.997 84.4437 56.8152 85.4887 56.8152ZM95.3327 54.2443C95.7972 54.2443 96.1854 54.4079 96.4902 54.7315C96.7986 55.0552 96.951 55.4588 96.951 55.9424C96.951 56.1934 96.9256 56.437 96.8748 56.6806C96.824 56.9206 96.7188 57.2661 96.5519 57.717L95.3545 61.2115H93.7834L94.705 57.4915C94.3893 57.3752 94.1354 57.1788 93.9467 56.9061C93.7544 56.6297 93.66 56.3097 93.66 55.9461C93.66 55.4479 93.8161 55.037 94.1317 54.7206C94.451 54.4006 94.8502 54.2443 95.3327 54.2443ZM104.252 70.3243C103.17 70.3243 102.132 70.1788 101.138 69.8879C100.14 69.597 99.3603 69.2261 98.7979 68.7752L99.7958 66.877C100.376 67.2915 101.084 67.6261 101.915 67.877C102.746 68.1279 103.584 68.2515 104.433 68.2515C106.527 68.2515 107.572 67.6515 107.572 66.4552C107.572 66.0552 107.43 65.7388 107.147 65.5061C106.864 65.2734 106.512 65.1024 106.088 64.9933C105.663 64.8843 105.061 64.7643 104.281 64.6297C103.217 64.4624 102.35 64.2734 101.675 64.0552C101.004 63.837 100.427 63.4733 99.9445 62.957C99.4619 62.4406 99.2225 61.717 99.2225 60.7861C99.2225 59.5861 99.7196 58.6261 100.717 57.9024C101.715 57.1788 103.05 56.8152 104.73 56.8152C105.612 56.8152 106.49 56.9243 107.372 57.1388C108.254 57.357 108.976 57.6479 109.538 58.0115L108.515 59.9097C107.434 59.2115 106.164 58.8624 104.701 58.8624C103.689 58.8624 102.916 59.0297 102.383 59.3606C101.853 59.6952 101.585 60.1352 101.585 60.6843C101.585 61.117 101.733 61.4588 102.035 61.7097C102.332 61.9606 102.702 62.1424 103.145 62.2588C103.584 62.3752 104.204 62.5097 105.003 62.6588C106.066 62.8406 106.926 63.037 107.582 63.2443C108.239 63.4515 108.798 63.8043 109.266 64.3061C109.73 64.8043 109.963 65.5061 109.963 66.4043C109.963 67.6043 109.451 68.557 108.431 69.2624C107.405 69.9715 106.011 70.3243 104.252 70.3243ZM125.405 70.3243C124.059 70.3243 122.858 70.0334 121.806 69.4515C120.75 68.8697 119.926 68.0661 119.328 67.0406C118.729 66.0152 118.432 64.8552 118.432 63.557C118.432 62.2588 118.729 61.0988 119.328 60.0733C119.926 59.0479 120.754 58.2515 121.806 57.677C122.862 57.1024 124.059 56.8152 125.405 56.8152C126.603 56.8152 127.67 57.0552 128.606 57.5388C129.546 58.0224 130.271 58.7206 130.786 59.637L128.969 60.8115C128.555 60.1788 128.04 59.7061 127.423 59.3897C126.81 59.0733 126.127 58.917 125.38 58.917C124.516 58.917 123.74 59.1097 123.051 59.4915C122.361 59.8733 121.821 60.4188 121.432 61.1279C121.04 61.837 120.848 62.6479 120.848 63.5643C120.848 64.4952 121.044 65.317 121.432 66.0224C121.824 66.7315 122.361 67.2734 123.051 67.6588C123.74 68.0406 124.516 68.2334 125.38 68.2334C126.127 68.2334 126.81 68.0734 127.423 67.7606C128.036 67.4443 128.551 66.9715 128.969 66.3388L130.786 67.4879C130.271 68.4043 129.546 69.1061 128.606 69.597C127.67 70.0806 126.603 70.3243 125.405 70.3243ZM146.189 56.9388V70.1752H143.921V68.1788C143.439 68.8624 142.804 69.3897 142.017 69.7643C141.229 70.1388 140.369 70.3243 139.437 70.3243C137.677 70.3243 136.287 69.837 135.275 68.8624C134.263 67.8879 133.755 66.4515 133.755 64.5534V56.9388H136.146V64.2806C136.146 65.5643 136.454 66.5315 137.067 67.1897C137.681 67.8479 138.562 68.1752 139.709 68.1752C140.972 68.1752 141.969 67.7934 142.699 67.0261C143.428 66.2588 143.794 65.1788 143.794 63.7788V56.9352H146.189V56.9388ZM158.174 69.4006C157.826 69.6988 157.394 69.9279 156.879 70.0879C156.363 70.2443 155.834 70.3243 155.286 70.3243C153.958 70.3243 152.927 69.9679 152.194 69.2515C151.465 68.5352 151.099 67.5134 151.099 66.1788V58.9133H148.856V56.9424H151.099V54.0443H153.49V56.9424H157.278V58.9133H153.49V66.0806C153.49 66.797 153.668 67.3461 154.027 67.7279C154.382 68.1097 154.894 68.3024 155.558 68.3024C156.287 68.3024 156.911 68.0952 157.427 67.677L158.174 69.4006Z" fill="white" stroke="black" stroke-width="0.216" stroke-miterlimit="22.9256"/>
</svg>
