<svg width="93" height="35" viewBox="0 0 93 35" fill="none" xmlns="http://www.w3.org/2000/svg">
<path fill-rule="evenodd" clip-rule="evenodd" d="M12.6172 20.5956L8.92367 15.248H8.70478H4.84582V20.5956H0.412933V1.40045H8.70306C10.399 1.40045 11.8726 1.68372 13.1222 2.25027C14.3717 2.81681 15.3334 3.62172 16.0091 4.66326C16.6847 5.70481 17.0208 6.93981 17.0208 8.36481C17.0208 9.79154 16.6795 11.0196 15.9953 12.0525C15.311 13.0854 14.3407 13.8765 13.0808 14.4241L17.3775 20.5939H12.6172V20.5956ZM12.5344 8.36654C12.5344 7.28872 12.188 6.46136 11.4952 5.88445C10.8023 5.30927 9.78888 5.02081 8.45832 5.02081H4.84582V11.7123H8.45832C9.7906 11.7123 10.8023 11.4204 11.4952 10.8348C12.188 10.2493 12.5344 9.42708 12.5344 8.36654ZM28.2529 20.9255C26.264 20.9255 24.4715 20.4954 22.8756 19.637C21.2796 18.7785 20.03 17.5936 19.1269 16.0857C18.2238 14.5778 17.7722 12.8816 17.7722 10.9989C17.7722 9.11617 18.2238 7.41999 19.1269 5.91208C20.03 4.40418 21.2796 3.22099 22.8756 2.36081C24.4715 1.50236 26.264 1.07227 28.2529 1.07227C30.2419 1.07227 32.0292 1.50236 33.6165 2.36081C35.2039 3.21927 36.4534 4.40418 37.3652 5.91208C38.2769 7.41999 38.7337 9.11617 38.7337 10.9989C38.7337 12.8816 38.2769 14.5778 37.3652 16.0857C36.4534 17.5936 35.2039 18.7768 33.6165 19.637C32.0292 20.4954 30.2419 20.9255 28.2529 20.9255ZM28.2529 17.1411C29.3836 17.1411 30.4056 16.8803 31.3173 16.3604C32.2291 15.8387 32.9461 15.1133 33.4649 14.1805C33.9854 13.2478 34.2439 12.1873 34.2439 10.9989C34.2439 9.81054 33.9836 8.74999 33.4649 7.81727C32.9444 6.88454 32.2291 6.15909 31.3173 5.63745C30.4056 5.11581 29.3836 4.85672 28.2529 4.85672C27.1223 4.85672 26.1003 5.11754 25.1885 5.63745C24.2768 6.15909 23.5598 6.88454 23.041 7.81727C22.5205 8.74999 22.262 9.81054 22.262 10.9989C22.262 12.1873 22.5222 13.2478 23.041 14.1805C23.5615 15.1133 24.2768 15.8387 25.1885 16.3604C26.1003 16.8803 27.1223 17.1411 28.2529 17.1411ZM50.0727 20.9255C48.0837 20.9255 46.293 20.4954 44.6953 19.637C43.0993 18.7785 41.8498 17.5936 40.9467 16.0857C40.0435 14.5778 39.592 12.8816 39.592 10.9989C39.592 9.11617 40.0435 7.41999 40.9467 5.91208C41.8498 4.40418 43.0993 3.22099 44.6953 2.36081C46.2913 1.50236 48.0837 1.07227 50.0727 1.07227C52.0616 1.07227 53.8489 1.50236 55.4363 2.36081C57.0236 3.21927 58.2732 4.40418 59.1849 5.91208C60.0967 7.41999 60.5534 9.11617 60.5534 10.9989C60.5534 12.8816 60.0967 14.5778 59.1849 16.0857C58.2732 17.5936 57.0236 18.7768 55.4363 19.637C53.8489 20.4954 52.0599 20.9255 50.0727 20.9255ZM50.0727 17.1411C51.2033 17.1411 52.2254 16.8803 53.1371 16.3604C54.0488 15.8387 54.7658 15.1133 55.2846 14.1805C55.8051 13.2478 56.0636 12.1873 56.0636 10.9989C56.0636 9.81054 55.8034 8.74999 55.2846 7.81727C54.7641 6.88454 54.0488 6.15909 53.1371 5.63745C52.2254 5.11581 51.2033 4.85672 50.0727 4.85672C48.9421 4.85672 47.92 5.11754 47.0083 5.63745C46.0965 6.15909 45.3795 6.88454 44.8608 7.81727C44.3403 8.74999 44.0817 9.81054 44.0817 10.9989C44.0817 12.1873 44.342 13.2478 44.8608 14.1805C45.3813 15.1133 46.0965 15.8387 47.0083 16.3604C47.92 16.8803 48.9421 17.1411 50.0727 17.1411ZM65.4896 5.02081V20.5974H69.9224V5.02081H76.0513V1.40045H59.3607V5.02081H65.4896ZM83.8605 20.9255C82.3473 20.9255 80.8823 20.72 79.469 20.3089C78.0557 19.8978 76.9199 19.3624 76.0616 18.7043L77.5663 15.3585C78.3867 15.9614 79.3639 16.4467 80.4945 16.8112C81.6251 17.1774 82.7558 17.3604 83.8881 17.3604C85.1463 17.3604 86.077 17.1739 86.6785 16.7991C87.28 16.4243 87.5816 15.9268 87.5816 15.305C87.5816 14.8473 87.4041 14.469 87.0473 14.1667C86.6923 13.8644 86.2356 13.6226 85.6789 13.4395C85.1222 13.2564 84.3707 13.0561 83.421 12.8367C81.9612 12.4895 80.7668 12.1424 79.8361 11.7952C78.9054 11.448 78.1074 10.8901 77.4422 10.1232C76.7769 9.35454 76.4442 8.33199 76.4442 7.05208C76.4442 5.93626 76.7459 4.92754 77.3474 4.02245C77.9489 3.11736 78.8572 2.40054 80.0705 1.87027C81.2839 1.33999 82.7661 1.07572 84.5172 1.07572C85.7392 1.07572 86.9336 1.22254 88.1021 1.51445C89.269 1.80636 90.291 2.22781 91.1665 2.77536L89.7981 6.14872C88.028 5.14345 86.2597 4.64081 84.4896 4.64081C83.2487 4.64081 82.3318 4.84117 81.7389 5.24363C81.146 5.64608 80.8496 6.17636 80.8496 6.83445C80.8496 7.49254 81.1908 7.98136 81.8751 8.3009C82.5593 8.62045 83.6037 8.93654 85.0084 9.24745C86.4682 9.59463 87.6626 9.94181 88.5933 10.289C89.524 10.6362 90.322 11.1854 90.9873 11.9351C91.6526 12.6847 91.9852 13.6986 91.9852 14.9785C91.9852 16.0754 91.6801 17.0772 91.0683 17.9805C90.4565 18.8856 89.5413 19.6024 88.3176 20.1327C87.099 20.6595 85.6116 20.9255 83.8605 20.9255ZM26.4002 23.7393H66.0032V24.8637H26.4002V23.7393ZM25.2161 27.8864C26.0055 27.8864 26.6311 28.1162 27.0913 28.5739C27.5532 29.0334 27.7841 29.7122 27.7841 30.6138V34.2307H26.6483V30.7434C26.6483 30.1354 26.5087 29.6759 26.2278 29.3667C25.9469 29.0575 25.547 28.9038 25.0265 28.9038C24.4508 28.9038 23.9924 29.0835 23.6529 29.4427C23.3133 29.802 23.1444 30.3184 23.1444 30.9904V34.229H22.0086V30.7416C22.0086 30.1336 21.869 29.6742 21.5881 29.365C21.3072 29.0558 20.9073 28.9021 20.3868 28.9021C19.8111 28.9021 19.3527 29.0817 19.0131 29.441C18.6736 29.8003 18.5047 30.3167 18.5047 30.9886V34.2273H17.3689V27.94H18.4582V28.8762C18.6874 28.5514 18.9873 28.3044 19.3579 28.1352C19.7284 27.9659 20.1507 27.8795 20.6246 27.8795C21.1141 27.8795 21.5484 27.978 21.9259 28.1766C22.3051 28.3735 22.5963 28.6637 22.8014 29.042C23.0376 28.6775 23.3668 28.3943 23.789 28.1887C24.2113 27.9901 24.687 27.8864 25.2161 27.8864ZM35.5848 31.1251C35.5848 31.2114 35.5762 31.3272 35.5606 31.4688H30.4711C30.5418 32.0215 30.7848 32.4672 31.1984 32.804C31.6121 33.1408 32.1274 33.3084 32.7427 33.3084C33.4924 33.3084 34.0957 33.0562 34.5541 32.5484L35.1815 33.2842C34.8971 33.6158 34.5438 33.8697 34.1215 34.0424C33.6993 34.2169 33.2287 34.3033 32.7065 34.3033C32.0429 34.3033 31.4552 34.1668 30.9433 33.8939C30.4297 33.621 30.0333 33.2393 29.7541 32.7487C29.4732 32.2582 29.3336 31.7055 29.3336 31.0888C29.3336 30.4791 29.4697 29.9298 29.7421 29.4393C30.0144 28.9487 30.3884 28.567 30.8658 28.2941C31.3432 28.0212 31.8809 27.8847 32.4807 27.8847C33.0805 27.8847 33.6148 28.0212 34.0836 28.2941C34.5524 28.567 34.9195 28.9487 35.1849 29.4393C35.4521 29.9298 35.5848 30.4929 35.5848 31.1251ZM32.4824 28.8468C31.9378 28.8468 31.4828 29.0126 31.1157 29.3443C30.7486 29.6759 30.5331 30.1112 30.4711 30.6484H34.4955C34.4317 30.1181 34.218 29.6863 33.8509 29.3494C33.4838 29.0161 33.0271 28.8468 32.4824 28.8468ZM40.5071 27.8864C41.3034 27.8864 41.9377 28.1179 42.4065 28.5808C42.8753 29.0437 43.1114 29.7208 43.1114 30.6155V34.2324H41.9756V30.7451C41.9756 30.1371 41.8291 29.6776 41.5378 29.3684C41.2465 29.0593 40.8277 28.9055 40.2831 28.9055C39.6678 28.9055 39.1818 29.0852 38.8267 29.4444C38.4717 29.8037 38.2942 30.3202 38.2942 30.9921V34.2307H37.1584V27.9434H38.2476V28.8917C38.4768 28.567 38.7854 28.3183 39.1766 28.1438C39.5661 27.9728 40.0108 27.8864 40.5071 27.8864ZM45.1831 26.6653C45.4037 26.6653 45.5881 26.743 45.7329 26.8967C45.8794 27.0504 45.9517 27.2422 45.9517 27.4719C45.9517 27.5911 45.9397 27.7068 45.9156 27.8225C45.8914 27.9365 45.8414 28.1006 45.7622 28.3148L45.1934 29.9747H44.4471L44.8849 28.2077C44.7349 28.1524 44.6143 28.0592 44.5247 27.9296C44.4333 27.7984 44.3885 27.6464 44.3885 27.4736C44.3885 27.237 44.4626 27.0418 44.6126 26.8915C44.7642 26.7395 44.9538 26.6653 45.1831 26.6653ZM49.4195 34.3033C48.9059 34.3033 48.4129 34.2342 47.9407 34.096C47.4667 33.9578 47.0962 33.7816 46.829 33.5674L47.303 32.6658C47.5788 32.8627 47.9148 33.0216 48.3095 33.1408C48.7042 33.26 49.1023 33.3187 49.5056 33.3187C50.5001 33.3187 50.9965 33.0337 50.9965 32.4655C50.9965 32.2754 50.9293 32.1252 50.7948 32.0146C50.6604 31.9041 50.4932 31.8229 50.2916 31.7711C50.0899 31.7193 49.8038 31.6623 49.4333 31.5984C48.9283 31.5189 48.5163 31.4291 48.1958 31.3254C47.8769 31.2218 47.6029 31.0491 47.3736 30.8038C47.1444 30.5585 47.0307 30.2148 47.0307 29.7726C47.0307 29.2026 47.2668 28.7466 47.7408 28.4029C48.2147 28.0592 48.849 27.8864 49.647 27.8864C50.0658 27.8864 50.4829 27.9383 50.9017 28.0402C51.3205 28.1438 51.6635 28.282 51.9306 28.4547L51.4446 29.3564C50.931 29.0247 50.3278 28.8589 49.6332 28.8589C49.1523 28.8589 48.7852 28.9384 48.5319 29.0955C48.2802 29.2544 48.1527 29.4634 48.1527 29.7243C48.1527 29.9298 48.2233 30.0922 48.3664 30.2114C48.5077 30.3305 48.6835 30.4169 48.8938 30.4722C49.1023 30.5274 49.3971 30.5914 49.7762 30.6622C50.2812 30.7485 50.6897 30.8418 51.0017 30.9403C51.3136 31.0387 51.579 31.2063 51.8014 31.4446C52.022 31.6813 52.1323 32.0146 52.1323 32.4413C52.1323 33.0113 51.8893 33.4638 51.405 33.7989C50.9172 34.1357 50.2554 34.3033 49.4195 34.3033ZM59.4676 34.3033C58.8282 34.3033 58.2577 34.1651 57.7579 33.8887C57.2563 33.6124 56.8651 33.2306 56.5807 32.7435C56.2963 32.2564 56.155 31.7055 56.155 31.0888C56.155 30.4722 56.2963 29.9212 56.5807 29.4341C56.8651 28.947 57.258 28.5687 57.7579 28.2958C58.2594 28.0229 58.8282 27.8864 59.4676 27.8864C60.0363 27.8864 60.5431 28.0004 60.9877 28.2302C61.4341 28.4599 61.7788 28.7915 62.0236 29.2268L61.1601 29.7847C60.9636 29.4842 60.7189 29.2596 60.4259 29.1094C60.1346 28.9591 59.8106 28.8848 59.4555 28.8848C59.0453 28.8848 58.6765 28.9764 58.349 29.1577C58.0216 29.3391 57.7647 29.5982 57.5803 29.935C57.3942 30.2718 57.3028 30.657 57.3028 31.0923C57.3028 31.5344 57.3959 31.9248 57.5803 32.2599C57.7665 32.5967 58.0216 32.8541 58.349 33.0372C58.6765 33.2185 59.0453 33.3101 59.4555 33.3101C59.8106 33.3101 60.1346 33.2341 60.4259 33.0855C60.7171 32.9353 60.9619 32.7107 61.1601 32.4102L62.0236 32.956C61.7788 33.3913 61.4341 33.7246 60.9877 33.9578C60.5431 34.1875 60.0363 34.3033 59.4676 34.3033ZM69.3399 27.9452V34.2324H68.2627V33.2842C68.0335 33.6089 67.7319 33.8594 67.3579 34.0373C66.9838 34.2152 66.5754 34.3033 66.1324 34.3033C65.2965 34.3033 64.6364 34.0718 64.1556 33.6089C63.6747 33.146 63.4334 32.4637 63.4334 31.5621V27.9452H64.5692V31.4325C64.5692 32.0423 64.7157 32.5017 65.007 32.8144C65.2982 33.127 65.7171 33.2824 66.2617 33.2824C66.8615 33.2824 67.3354 33.1011 67.6819 32.7366C68.0283 32.3722 68.2024 31.8592 68.2024 31.1942V27.9434H69.3399V27.9452ZM75.0327 33.8645C74.8672 34.0062 74.6621 34.115 74.4174 34.191C74.1726 34.2653 73.921 34.3033 73.6608 34.3033C73.03 34.3033 72.5405 34.134 72.1923 33.7937C71.8459 33.4534 71.6718 32.9681 71.6718 32.3342V28.8831H70.6067V27.9469H71.6718V26.5703H72.8076V27.9469H74.607V28.8831H72.8076V32.2875C72.8076 32.6278 72.8921 32.8886 73.0627 33.07C73.2316 33.2514 73.4746 33.3429 73.79 33.3429C74.1365 33.3429 74.4329 33.2444 74.6776 33.0458L75.0327 33.8645Z" fill="white" stroke="black" stroke-width="0.216" stroke-miterlimit="22.9256"/>
</svg>
