<?xml version="1.0" encoding="utf-8"?><svg xmlns="http://www.w3.org/2000/svg" xmlns:xlink="http://www.w3.org/1999/xlink"><symbol viewBox="0 0 28 9" id="arrow-right" xmlns="http://www.w3.org/2000/svg"><path fill-rule="evenodd" clip-rule="evenodd" d="M21.5 3.5H0v2h21.5V9L28 4.55 21.5 0v3.5z"/></symbol><symbol viewBox="0 0 22 24" id="basket" xmlns="http://www.w3.org/2000/svg"><g clip-path="url(#ba)"><path d="M10.363 18.443a2.046 2.046 0 00-2.045 2.042 2.046 2.046 0 004.09 0 2.046 2.046 0 00-2.045-2.042zm6.134 0a2.046 2.046 0 00-2.045 2.042 2.046 2.046 0 004.089 0 2.046 2.046 0 00-2.044-2.042zm3.978-8.199L7.413 6.891a.614.614 0 00-.75.73L8.67 16.4h-.786L5.482 5.895a.613.613 0 00-.474-.464l-4.27-.882A.614.614 0 00.489 5.75l3.885.802L6.797 17.15a.613.613 0 00.598.477h12.07a.615.615 0 00.607-.53l.858-6.175a.613.613 0 00-.455-.678zm-8.14 3.91a.613.613 0 01-1.227 0v-2.696a.613.613 0 011.227 0v2.696zm2.625 0a.613.613 0 01-1.227 0v-1.88a.613.613 0 011.227 0v1.88zm2.625 0a.613.613 0 01-1.227 0v-1.226a.613.613 0 011.227 0v1.226z"/></g><path fill-rule="evenodd" clip-rule="evenodd" d="M16.268 4.568a2.996 2.996 0 00-1.693-.523c-.627 0-1.21.193-1.693.523-.28-.843-.492-1.752-.492-2.383C12.39.98 13.37 0 14.575 0s2.185.98 2.185 2.185c0 .631-.212 1.54-.492 2.383zm-4.722 2.274l.024.006v-.011l-.024.005zm4.972 1.217c-1.333-.33-2.766-.681-4.129-1.013a2.185 2.185 0 114.129 1.013zm4.436 1.103c-.866-.217-2.155-.538-3.618-.9a2.995 2.995 0 00.243-1.425c.87.18 1.762.45 2.308.765.596.344.969.928 1.067 1.56zM9.869 6.439c-.36-.086-.706-.167-1.03-.243a2.19 2.19 0 01-.376-2.667 2.188 2.188 0 013.147-.7c.098.738.338 1.599.61 2.353a3.01 3.01 0 00-.449.774c-.628.113-1.305.278-1.902.483zm10.124.075a3.43 3.43 0 01-.217.114c-.696-.295-1.587-.526-2.397-.672a3.01 3.01 0 00-.449-.774c.262-.727.494-1.553.599-2.273.095-.067.189-.128.278-.18a2.188 2.188 0 012.986.8 2.188 2.188 0 01-.8 2.985z"/><defs><clipPath id="ba"><path transform="translate(0 3.064)" d="M0 0h20.936v20.936H0z"/></clipPath></defs></symbol><symbol viewBox="0 0 20 20" id="calendar" xmlns="http://www.w3.org/2000/svg"><path fill-rule="evenodd" clip-rule="evenodd" d="M1.75.438C.115 1.255.001 1.813.001 9c0 9.298-.266 8.999 7.983 9h5.36l-.719-.75-.718-.75h-4.66c-6.2 0-5.747.48-5.747-6.078V5.5h15v6.407l.75.718.75.719v-5.36c-.001-8.249.298-7.983-9-7.983-5.569 0-6.486.055-7.25.437zm14.171 1.606c.34.32.579.835.579 1.25V4h-15v-.67c0-.37.245-.932.544-1.25.54-.576.578-.579 6.921-.579 6.204 0 6.394.015 6.957.544zM3.092 7.37c-.08.208-.08.55 0 .759.126.327.95.37 5.965.312l5.818-.067v-1.25l-5.818-.067c-5.015-.058-5.84-.015-5.965.313zm6.5 2.5c-.079.205.089 1.134.371 2.064.492 1.619.654 1.83 3.735 4.879C16.49 19.578 17.025 20 17.728 20c.563 0 1.034-.224 1.541-.73.507-.508.731-.98.731-1.542 0-.703-.422-1.237-3.183-4.027-2.979-3.01-3.285-3.248-4.776-3.709-1.91-.59-2.262-.607-2.45-.12zm-6.498.495a1.242 1.242 0 000 .768c.122.317.592.371 2.714.312 2.553-.07 2.567-.074 2.567-.696 0-.621-.014-.625-2.567-.696-2.122-.06-2.592-.005-2.714.312z"/></symbol><symbol viewBox="0 0 12 11" id="call" xmlns="http://www.w3.org/2000/svg"><path fill-rule="evenodd" clip-rule="evenodd" d="M.114.184c-.24.272-.087 1.631.327 2.91 1.226 3.779 4.47 6.69 8.53 7.655 1.6.38 2.583.328 2.84-.153.226-.42.26-2.594.046-2.968-.102-.179-.396-.29-.941-.355a10.882 10.882 0 01-1.524-.312l-.73-.22-.735.681-.736.68-.492-.22c-.818-.367-2.149-1.47-2.886-2.392l-.695-.869.765-.786c.586-.604.742-.856.667-1.083-.054-.162-.25-.837-.434-1.498L3.779.05 2.04.01C.64-.021.266.012.114.184z"/></symbol><symbol viewBox="0 0 344.96 344.96" id="check" xmlns="http://www.w3.org/2000/svg"><g data-name="Слой 2"><path d="M321.85 86.24l-40-23.11-23.1-40H212.5L172.48 0l-40 23.11H86.24l-23.11 40-40 23.1v46.21L0 172.48l23.11 40v46.21l40 23.11 23.11 40h46.21l40 23.1 40-23.11h46.21l23.11-40 40-23.11V212.5l23.11-40-23.11-40V86.24zM156.91 243.07a16.79 16.79 0 01-23.34 0l-50.45-50.44a16.19 16.19 0 010-22.89l13.35-13.35a16.19 16.19 0 0122.89 0l25.87 25.87 80.34-80.35a16.19 16.19 0 0122.89 0l13.35 13.35a16.19 16.19 0 010 22.89z" data-name="Capa 1"/></g></symbol><symbol viewBox="0 0 9 5" id="chevron-down" xmlns="http://www.w3.org/2000/svg"><path fill-rule="evenodd" clip-rule="evenodd" d="M.25.273L0 .546l2.25 2.227L4.5 5l2.25-2.227L9 .546 8.75.273 8.5 0l-2 2.046-2 2.045-2-2.046L.5 0 .25.273z"/></symbol><symbol viewBox="0 0 9 15" id="fb" xmlns="http://www.w3.org/2000/svg"><path d="M7.629 8.625l.383-2.516H5.578V4.47c0-.711.328-1.367 1.422-1.367h1.121V.942S7.11.75 6.152.75c-1.996 0-3.308 1.23-3.308 3.418v1.941H.602v2.516h2.242v6.125h2.734V8.625h2.05z"/></symbol><symbol viewBox="0 0 18 17" id="gift" xmlns="http://www.w3.org/2000/svg"><path fill-rule="evenodd" clip-rule="evenodd" d="M5.287.157a2.608 2.608 0 00-1.569 2.388l-.006.997H1.856L0 3.543v2.691c0 2.542.025 2.692.45 2.692.43 0 .45.15.45 3.486 0 3.403.013 3.5.552 4.037l.553.551h13.99l.553-.55c.539-.538.552-.635.552-4.038 0-3.337.02-3.486.45-3.486.425 0 .45-.15.45-2.692v-2.69l-1.856-.002h-1.856l-.007-1.01c-.005-.837-.131-1.136-.735-1.738-.625-.623-.888-.727-1.838-.727-.958 0-1.216.104-1.908.773l-.8.772-.76-.734C7.432.098 6.142-.217 5.287.158zm1.679 1.917c.598.718-.28 1.821-1.06 1.332-.216-.136-.427-.418-.468-.627-.168-.85.97-1.374 1.528-.705zm5.4 0c.598.718-.28 1.821-1.06 1.332-.216-.136-.427-.418-.468-.627-.168-.85.97-1.374 1.528-.705zm3.834 4.16v.898H1.8V5.337h14.4v.897zm-8.1 5.832v3.14H2.7v-6.28h5.4v3.14zm7.2 0v3.14H9.9v-6.28h5.4v3.14z"/></symbol><symbol viewBox="0 0 14 13" id="instagram" xmlns="http://www.w3.org/2000/svg"><path d="M7.125 3.605A3.145 3.145 0 003.98 6.75a3.128 3.128 0 003.145 3.145A3.145 3.145 0 0010.27 6.75a3.163 3.163 0 00-3.145-3.145zm0 5.196a2.048 2.048 0 01-2.05-2.051c0-1.121.902-2.023 2.05-2.023 1.121 0 2.023.902 2.023 2.023 0 1.148-.902 2.05-2.023 2.05zm3.992-5.305a.735.735 0 00-.738-.738.735.735 0 00-.738.738c0 .41.328.738.738.738s.738-.328.738-.738zm2.078.738c-.054-.984-.273-1.859-.984-2.57C11.5.954 10.625.734 9.64.68 8.629.625 5.594.625 4.582.68c-.984.054-1.832.273-2.57.984-.711.711-.93 1.586-.985 2.57-.054 1.012-.054 4.047 0 5.059.055.984.274 1.832.985 2.57.738.711 1.586.93 2.57.985 1.012.054 4.047.054 5.059 0 .984-.055 1.859-.274 2.57-.985.71-.738.93-1.586.984-2.57.055-1.012.055-4.047 0-5.059zm-1.312 6.125c-.192.547-.63.957-1.149 1.176-.82.328-2.734.246-3.609.246-.902 0-2.816.082-3.61-.246A2.074 2.074 0 012.34 10.36c-.328-.793-.246-2.707-.246-3.609 0-.875-.082-2.79.246-3.61a2.11 2.11 0 011.176-1.148c.793-.328 2.707-.246 3.609-.246.875 0 2.79-.082 3.61.246.519.192.93.63 1.148 1.149.328.82.246 2.734.246 3.609 0 .902.082 2.816-.246 3.61z"/></symbol><symbol viewBox="0 0 11 15" id="location" xmlns="http://www.w3.org/2000/svg"><path d="M4.703 14.477a.639.639 0 001.067 0C9.762 8.734 10.5 8.133 10.5 6A5.251 5.251 0 005.25.75 5.234 5.234 0 000 6c0 2.133.71 2.734 4.703 8.477zm.547-6.29A2.16 2.16 0 013.062 6c0-1.203.958-2.188 2.188-2.188 1.203 0 2.188.985 2.188 2.188 0 1.23-.985 2.188-2.188 2.188z" fill-opacity=".4"/></symbol><symbol viewBox="0 0 6 6" id="marker" xmlns="http://www.w3.org/2000/svg"><path fill-rule="evenodd" clip-rule="evenodd" d="M1.444.556l-.889.889L2.111 3 .555 4.555l.89.89L3 3.888l1.555 1.556.89-.89L3.887 3l1.556-1.556-.889-.889L3 2.111 1.444.556z"/></symbol><symbol viewBox="0 0 16 14" id="star" xmlns="http://www.w3.org/2000/svg"><path fill-rule="evenodd" clip-rule="evenodd" d="M6.743 2.375C5.55 5.052 5.824 4.842 3.303 5.02c-.792.056-1.86.146-2.372.2L0 5.315 2.154 7.1C3.683 8.367 4.28 8.968 4.217 9.17c-.17.538-1.185 4.668-1.185 4.82 0 .084 1.057-.46 2.35-1.211 1.291-.75 2.424-1.364 2.515-1.364.092 0 1.221.607 2.51 1.35 1.287.741 2.34 1.286 2.34 1.21 0-.077-.277-1.24-.617-2.585-.538-2.132-.584-2.48-.36-2.715.141-.148 1.1-.953 2.13-1.79 2.17-1.762 2.233-1.646-1.014-1.846-2.975-.184-2.642.047-3.849-2.665C8.456 1.07 7.94 0 7.89 0c-.05 0-.566 1.069-1.147 2.375z"/></symbol><symbol viewBox="0 0 14 11" id="telegram" xmlns="http://www.w3.org/2000/svg"><path d="M13.195 1.457c.164-.766-.273-1.066-.765-.875L1.547 4.766c-.738.3-.711.71-.11.902l2.762.848 6.453-4.047c.301-.219.602-.082.356.11L5.785 7.28l-.191 2.871c.3 0 .41-.109.574-.273l1.34-1.313 2.816 2.079c.52.3.903.136 1.04-.465l1.831-8.723z"/></symbol><symbol viewBox="0 0 16 16" id="viber" xmlns="http://www.w3.org/2000/svg"><path d="M8 1.335c-1.071.013-3.374.19-4.662 1.37-.958.948-1.292 2.35-1.331 4.084-.033 1.728-.072 4.973 3.058 5.856v1.346s-.02.538.337.648c.438.14.688-.275 1.105-.72l.778-.879c2.142.178 3.782-.232 3.97-.293.435-.139 2.883-.451 3.283-3.696.41-3.351-.2-5.463-1.301-6.418h-.007c-.332-.306-1.668-1.279-4.652-1.29 0 0-.222-.014-.578-.008zm.037.942a7.02 7.02 0 01.488.011c2.527.007 3.732.767 4.017 1.023.927.794 1.405 2.697 1.055 5.495-.332 2.713-2.317 2.885-2.685 3.002-.156.05-1.6.406-3.42.289 0 0-1.356 1.634-1.78 2.055-.067.074-.146.095-.196.085-.071-.018-.093-.107-.089-.229l.013-2.233c-2.655-.733-2.498-3.5-2.47-4.946.033-1.446.304-2.628 1.113-3.43 1.088-.982 3.043-1.115 3.953-1.122zm.2 1.446a.166.166 0 100 .332 3.136 3.136 0 012.242.883c.606.588.9 1.378.912 2.411 0 .092.074.167.167.167V7.51a.167.167 0 00.168-.165 3.588 3.588 0 00-1.009-2.646c-.66-.645-1.496-.977-2.48-.977zm-2.198.382a.523.523 0 00-.342.067H5.69a2.61 2.61 0 00-.637.523 1.003 1.003 0 00-.256.525.71.71 0 00.026.302l.01.006c.172.504.396.988.67 1.444a8.48 8.48 0 001.29 1.762l.015.022.024.017.015.018.017.015c.532.505 1.127.94 1.769 1.295.734.4 1.18.588 1.447.667v.004c.078.024.15.034.221.034.228-.016.444-.109.613-.262a2.53 2.53 0 00.517-.638v-.004c.128-.241.085-.469-.1-.623-.37-.323-.77-.61-1.195-.857-.285-.155-.574-.061-.69.095l-.25.315c-.129.156-.361.134-.361.134l-.007.004C7.093 8.527 6.63 6.772 6.63 6.772s-.022-.239.139-.36l.312-.252c.15-.122.254-.41.094-.695a7.498 7.498 0 00-.856-1.194.475.475 0 00-.28-.167zm2.486.495c-.221 0-.221.334.003.334A2.098 2.098 0 0110 5.572 1.94 1.94 0 0110.5 7a.168.168 0 00.167.165l.007.009a.169.169 0 00.167-.167c.015-.662-.191-1.218-.595-1.663C9.84 4.9 9.273 4.65 8.549 4.6h-.024zm.274.898c-.228-.006-.236.335-.01.341.55.029.816.306.851.877a.166.166 0 00.165.163h.007a.168.168 0 00.16-.178c-.039-.744-.445-1.164-1.166-1.202H8.8z"/></symbol><symbol viewBox="0 0 16 10" id="vk" xmlns="http://www.w3.org/2000/svg"><path d="M14.902.977c.082-.329 0-.602-.492-.602h-1.613c-.41 0-.602.219-.711.465 0 0-.82 1.996-1.969 3.308-.383.356-.547.493-.765.493-.082 0-.247-.137-.247-.465v-3.2c0-.41-.109-.601-.464-.601H6.125c-.273 0-.41.191-.41.383 0 .383.574.465.629 1.558v2.38c0 .519-.082.628-.301.628-.547 0-1.86-2.023-2.652-4.32-.164-.438-.329-.629-.739-.629H1.04C.602.375.492.594.492.84c0 .437.547 2.543 2.543 5.36 1.34 1.913 3.227 2.925 4.922 2.925 1.012 0 1.148-.219 1.148-.602 0-1.832-.082-2.023.41-2.023.247 0 .657.137 1.614 1.066 1.094 1.094 1.285 1.559 1.887 1.559h1.613c.465 0 .684-.219.547-.684-.301-.93-2.352-2.898-2.461-3.035-.246-.3-.164-.437 0-.71 0 0 1.969-2.79 2.187-3.72z"/></symbol><symbol viewBox="0 0 16 16" id="whatsapp" xmlns="http://www.w3.org/2000/svg"><path fill-rule="evenodd" clip-rule="evenodd" d="M12.269 3.755A5.947 5.947 0 008.035 2 5.994 5.994 0 002.05 7.985a5.98 5.98 0 00.799 2.992L2 14.077l3.173-.832c.877.477 1.86.728 2.86.728h.002a5.993 5.993 0 005.533-8.276 5.953 5.953 0 00-1.3-1.942zm-4.234 9.208h-.002c-.89 0-1.765-.24-2.532-.694l-.181-.108-1.883.494.502-1.835-.118-.188a4.965 4.965 0 01-.76-2.647 4.982 4.982 0 016.88-4.597c.604.25 1.152.618 1.613 1.081a4.946 4.946 0 011.455 3.52 4.982 4.982 0 01-4.974 4.974zm2.729-3.726c-.15-.075-.885-.436-1.022-.486-.137-.05-.236-.075-.336.074-.1.15-.387.486-.474.586-.087.1-.175.112-.324.038-.15-.075-.631-.233-1.203-.742a4.505 4.505 0 01-.832-1.036c-.087-.15-.009-.231.066-.306.068-.066.15-.174.224-.262.075-.087.1-.149.15-.249.05-.1.025-.187-.013-.262-.037-.075-.337-.811-.461-1.11-.121-.29-.244-.252-.336-.256a6.418 6.418 0 00-.286-.005.55.55 0 00-.4.186c-.137.15-.523.512-.523 1.248s.536 1.447.61 1.547c.075.1 1.055 1.61 2.555 2.258.358.154.636.246.853.315.358.114.684.098.942.06.287-.043.885-.362 1.01-.711.124-.35.124-.649.087-.711-.038-.063-.138-.101-.287-.176z"/></symbol></svg>