<svg width="14" height="14" viewBox="0 0 14 14" fill="none" xmlns="http://www.w3.org/2000/svg">
<circle cx="7.5" cy="6.5" r="5.5" fill="#30A9DB"/>
<path d="M12.0005 1.75719C11.8066 1.73663 11.5959 1.76691 11.3841 1.85062C11.1216 1.95387 7.0084 3.68413 3.17415 5.29821L1.90723 5.83141C1.41664 6.03033 1.16895 6.35383 1.16895 6.78958C1.16895 7.09467 1.29806 7.50848 1.91406 7.75231L4.05257 8.60908C4.23749 9.16383 4.66699 10.4519 4.7749 10.7943C4.83907 10.9973 5.00114 11.5087 5.41064 11.6283C5.49464 11.6569 5.5823 11.6716 5.67155 11.6716C5.92997 11.6716 6.11603 11.5513 6.20703 11.4813L7.56624 10.3317L9.21712 11.8584C9.28071 11.9232 9.61725 12.2504 10.0693 12.2504C10.6334 12.2504 11.0613 11.7808 11.1506 11.3264C11.199 11.0773 12.7912 3.08448 12.7912 3.08564C12.9341 2.44456 12.6771 2.112 12.512 1.97025C12.3706 1.8492 12.1944 1.77776 12.0005 1.75719ZM11.6143 3.01728C11.3943 4.11978 10.1955 10.1377 10.0135 11.0051L7.60042 8.77314L5.96322 10.1597L6.41667 8.38577C6.41667 8.38577 9.54482 5.21936 9.73324 5.03502C9.8849 4.88744 9.91667 4.83571 9.91667 4.78437C9.91667 4.71612 9.88154 4.66702 9.80046 4.66702C9.72754 4.66702 9.62851 4.7369 9.57601 4.76956C8.90906 5.18537 6.06905 6.80333 4.67122 7.5985L2.64323 6.78844L3.6276 6.37487C6.13535 5.31904 10.6016 3.43845 11.6143 3.01728Z" fill="black"/>
</svg>
