<svg width="27" height="27" viewBox="0 0 27 27" fill="none" xmlns="http://www.w3.org/2000/svg">
<g clip-path="url(#clip0)">
<ellipse cx="16.6724" cy="16.6443" rx="10.1583" ry="10.1423" fill="#30A9DB"/>
<path d="M24.8699 2.48163C24.44 2.4358 23.9729 2.50328 23.5034 2.68981C22.9215 2.91989 13.803 6.77553 5.30297 10.3723L2.49434 11.5605C1.40678 12.0037 0.857666 12.7246 0.857666 13.6956C0.857666 14.3755 1.1439 15.2976 2.5095 15.8409L7.25031 17.7501C7.66025 18.9863 8.61239 21.8566 8.85163 22.6196C8.99388 23.0719 9.35318 24.2115 10.261 24.478C10.4472 24.5417 10.6415 24.5745 10.8394 24.5745C11.4123 24.5745 11.8247 24.3065 12.0265 24.1505L15.0397 21.5888L18.6995 24.9909C18.8404 25.1351 19.5865 25.8642 20.5887 25.8642C21.8392 25.8642 22.7878 24.8178 22.9857 23.8052C23.093 23.2502 26.6227 5.4393 26.6227 5.4419C26.9396 4.01333 26.3699 3.27226 26.0039 2.95639C25.6903 2.68666 25.2997 2.52745 24.8699 2.48163ZM24.0136 5.28957C23.5261 7.74634 20.8685 21.1564 20.465 23.0893L15.1155 18.1157L11.486 21.2055L12.4912 17.2525C12.4912 17.2525 19.426 10.1966 19.8436 9.78583C20.1799 9.45696 20.2503 9.34167 20.2503 9.22728C20.2503 9.0752 20.1724 8.96579 19.9927 8.96579C19.831 8.96579 19.6115 9.12149 19.4951 9.19428C18.0165 10.1209 11.7206 13.7263 8.62179 15.4982L4.12597 13.6931L6.30821 12.7715C11.8676 10.4187 21.7687 6.22808 24.0136 5.28957Z" fill="black"/>
</g>
<defs>
<clipPath id="clip0">
<rect width="25.8575" height="25.8168" fill="white" transform="translate(0.857666 0.854492)"/>
</clipPath>
</defs>
</svg>
