<svg width="28" height="28" viewBox="0 0 28 28" fill="none" xmlns="http://www.w3.org/2000/svg">
<g clip-path="url(#clip0)">
<ellipse cx="17.4803" cy="16.6443" rx="10.1583" ry="10.1423" fill="#577CA1"/>
<path d="M5.5387 5.69736L1.84742 5.69922C1.84742 5.69922 1.6362 5.68687 1.3811 5.72146C1.12599 5.75605 0.749131 5.77211 0.362687 6.22561L0.3609 6.22747L0.359113 6.22932C0.0153714 6.63712 0.0284876 7.11176 0.0714578 7.37293C0.11427 7.63314 0.210819 7.82889 0.210819 7.82889V7.83075C0.246308 7.92107 2.92648 14.7336 6.30519 18.3939C8.68842 20.9774 11.2373 21.8303 13.5073 21.8303H14.6847C15.0721 21.8303 15.4181 21.812 15.8014 21.606C16.1847 21.4 16.5143 20.8315 16.5143 20.3901C16.5143 19.9145 16.5255 19.4534 16.584 19.1964C16.6385 18.9564 16.6175 19.0154 16.6393 19.0148C16.6613 19.0197 16.7012 19.0293 16.7769 19.0648C16.9401 19.1414 17.1923 19.3122 17.4719 19.5375C18.0304 19.9873 18.6919 20.6398 19.4337 21.1445C20.4962 21.875 21.6492 21.8303 21.6492 21.8303H25.4513L25.4923 21.8266C25.4923 21.8266 26.0758 21.8128 26.6751 21.4318C26.9748 21.2412 27.331 20.8917 27.4505 20.3679C27.5701 19.844 27.4174 19.2943 27.1236 18.8109C27.0162 18.6336 26.4951 17.8501 24.415 15.9343C23.8776 15.4398 23.5111 15.0898 23.3662 14.9037C23.3148 14.8376 23.3104 14.844 23.3001 14.8407C23.3122 14.8083 23.4324 14.5457 23.7539 14.1123C24.089 13.6605 24.5982 13.0311 25.2529 12.1661C26.0874 11.0632 26.6729 10.0027 27.0414 9.10781C27.2256 8.66038 27.3562 8.25439 27.4345 7.88635C27.5127 7.51832 27.5752 7.2124 27.4595 6.7761C27.3732 6.45132 27.1389 6.16044 26.9092 6.0069C26.6795 5.85336 26.4653 5.79552 26.2731 5.75853C25.8887 5.68455 25.5495 5.69736 25.2333 5.69736C24.5712 5.69736 21.6277 5.72146 21.3848 5.72146C21.0996 5.72146 20.6447 5.84465 20.4343 5.96983C19.9117 6.2803 19.7482 6.70567 19.7482 6.70567L19.6981 6.79649L19.6696 6.89844C19.6696 6.89844 18.9993 9.14774 18.3099 10.307H18.3081C17.4974 11.6727 16.8927 12.2145 16.6268 12.3681C16.5986 12.3844 16.6142 12.3758 16.5947 12.3867C16.5739 12.3238 16.5476 12.2373 16.5304 12.0771C16.4915 11.7163 16.5143 11.2081 16.5143 10.7167C16.5143 9.3554 16.6128 8.50656 16.5036 7.70286C16.4489 7.301 16.3098 6.85349 15.9926 6.5092C15.6753 6.16491 15.2655 5.99544 14.8562 5.89754H14.8545C14.4279 5.79565 13.9683 5.70814 12.8641 5.69736C11.4572 5.68376 10.5409 5.729 9.72668 6.10514L9.71775 6.1107L9.7106 6.1144C9.3889 6.27117 9.13529 6.45086 8.91195 6.69084C8.80028 6.81084 8.6678 6.89822 8.57606 7.28026C8.53018 7.47128 8.52515 7.83269 8.73329 8.12545C8.94142 8.41822 9.2331 8.50652 9.40508 8.52952C9.37335 8.52525 9.54038 8.56338 9.66951 8.62961C9.79864 8.69584 9.91075 8.7912 9.93929 8.82979V8.83164C9.92736 8.81555 10.0514 9.13523 10.084 9.42661C10.1167 9.718 10.1108 9.95301 10.1108 9.95301L10.109 10.0105L10.1144 10.0679C10.1144 10.0679 10.1705 10.7127 10.1412 11.3784C10.1265 11.7112 10.086 12.0461 10.0322 12.2514C10.0294 12.2622 10.0281 12.2584 10.0251 12.268C9.79602 12.1021 9.2679 11.5239 8.54032 10.2774C7.86775 9.12429 7.23783 7.05042 7.23783 7.05042L7.22354 7.00408L7.20746 6.9596C7.20746 6.9596 7.09002 6.49632 6.5714 6.11811C6.08531 5.76311 5.62268 5.71405 5.62268 5.71405L5.5387 5.69736ZM5.32609 7.59535C5.37841 7.6152 5.4878 7.65609 5.50833 7.66579L5.48689 7.59906L5.51547 7.66764L5.51905 7.66949V7.67135H5.52083C5.47486 7.63798 5.51383 7.6711 5.51905 7.67876C5.54431 7.76818 6.10288 9.76421 6.97519 11.2597C7.76984 12.6212 8.35693 13.3839 8.99771 13.8398C9.63788 14.2953 10.4987 14.2483 10.9363 14.0122C11.521 13.6971 11.6845 13.1794 11.7974 12.7481C11.9104 12.3168 11.9507 11.8793 11.969 11.4655C12.0038 10.6759 11.9442 10.03 11.9386 9.96598C11.9395 9.93031 11.9476 9.62184 11.9011 9.20605C11.8541 8.78709 11.7699 8.26643 11.4115 7.74363C11.813 7.68175 12.0359 7.58752 12.8462 7.59535C13.8796 7.60544 14.0368 7.65017 14.4435 7.74734C14.665 7.80033 14.6896 7.84423 14.6686 7.82148C14.6477 7.79872 14.6668 7.78352 14.6919 7.96791C14.742 8.3366 14.6847 9.28217 14.6847 10.7167C14.6847 11.121 14.6471 11.6913 14.7115 12.2884C14.7759 12.8852 14.9557 13.6488 15.6513 14.0956C16.0476 14.3501 16.8048 14.4376 17.5184 14.0252C18.232 13.6128 18.9643 12.8216 19.8661 11.3024C20.7569 9.80443 21.2896 7.83503 21.3472 7.62686C21.3472 7.62686 21.3574 7.62001 21.3633 7.61574C21.3795 7.61655 21.3589 7.61945 21.3848 7.61945C21.7236 7.61945 24.6147 7.59535 25.2333 7.59535C25.4035 7.59535 25.4782 7.60486 25.6049 7.61018C25.5537 7.81507 25.4848 8.05366 25.3583 8.36085C25.0611 9.08284 24.5509 10.0193 23.8129 10.9947C23.1769 11.835 22.6828 12.4445 22.3049 12.9538C21.9271 13.4632 21.6302 13.865 21.5063 14.4459C21.3823 15.0268 21.6188 15.6821 21.9422 16.0974C22.2656 16.5127 22.6658 16.8625 23.2 17.3541C25.2126 19.2077 25.5428 19.7687 25.5745 19.8211V19.8229C25.6085 19.8788 25.5865 19.8226 25.5995 19.8507C25.4854 19.8876 25.3496 19.9294 25.3369 19.9323H21.6349H21.6295C21.6295 19.9323 20.9487 19.9091 20.4432 19.5616L20.4414 19.5597H20.4396C19.9049 19.1964 19.2586 18.5733 18.594 18.038C18.2617 17.7704 17.9233 17.5196 17.5309 17.3355C17.1385 17.1515 16.6411 17.021 16.1176 17.1835C15.36 17.4188 14.9395 18.1668 14.8044 18.7609C14.7075 19.1873 14.7218 19.5581 14.7187 19.9304C14.6926 19.9319 14.7152 19.9323 14.6847 19.9323H13.5073C11.648 19.9323 9.71371 19.3435 7.62733 17.0816C4.91485 14.1431 2.49478 8.46046 2.1315 7.59721L5.32609 7.59535ZM21.2829 7.60277C21.2663 7.6066 21.3138 7.61033 21.3526 7.61389C21.3474 7.61684 21.3531 7.61128 21.3455 7.61574C21.3447 7.59988 21.3052 7.59761 21.2829 7.60277Z" fill="black"/>
</g>
<defs>
<clipPath id="clip0">
<rect width="27.4736" height="27.4303" fill="white" transform="translate(0.0495605 0.0478516)"/>
</clipPath>
</defs>
</svg>
