<svg width="14" height="14" viewBox="0 0 14 14" fill="none" xmlns="http://www.w3.org/2000/svg">
<circle cx="7.5" cy="7.5" r="5.5" fill="#1EA211"/>
<path d="M6.5625 0.875C3.42481 0.875 0.875 3.42481 0.875 6.5625C0.875 7.69727 1.24072 8.73633 1.81152 9.625L0.833984 12.356L3.87598 11.498C4.68262 11.939 5.57812 12.25 6.5625 12.25C9.7002 12.25 12.25 9.7002 12.25 6.5625C12.25 3.42481 9.7002 0.875 6.5625 0.875ZM6.5625 1.75C9.2251 1.75 11.375 3.8999 11.375 6.5625C11.375 9.2251 9.2251 11.375 6.5625 11.375C5.6499 11.375 4.80566 11.1187 4.07422 10.6777L3.91357 10.5786L2.22852 11.0503L2.77539 9.53271L2.64209 9.34814C2.08154 8.55859 1.75 7.60156 1.75 6.5625C1.75 3.8999 3.8999 1.75 6.5625 1.75ZM4.42969 3.5C4.33057 3.5 4.1665 3.54102 4.02637 3.70508C3.88965 3.86572 3.5 4.25879 3.5 5.05859C3.5 5.85498 4.04004 6.62744 4.11523 6.73682C4.19043 6.84619 5.17822 8.4834 6.68896 9.1875C7.04785 9.35498 7.32812 9.4541 7.54688 9.5293C7.90918 9.65234 8.23731 9.63525 8.49707 9.59424C8.7876 9.54639 9.38916 9.20117 9.51562 8.82178C9.63867 8.44238 9.64209 8.11768 9.60107 8.04932C9.56689 7.98096 9.46436 7.93994 9.31396 7.86133C9.16357 7.7793 8.42188 7.38623 8.28516 7.33496C8.14844 7.27686 8.0459 7.25293 7.94336 7.41357C7.84424 7.57764 7.55713 7.94336 7.46826 8.04932C7.3794 8.15869 7.29395 8.17236 7.14356 8.09033C6.98975 8.0083 6.5044 7.8374 5.93018 7.28369C5.48242 6.85303 5.17822 6.32324 5.09277 6.15918C5.00391 5.99512 5.08252 5.90967 5.15771 5.83106C5.22607 5.75586 5.30811 5.63965 5.3833 5.54395C5.4585 5.45166 5.48242 5.37988 5.53369 5.27393C5.58496 5.16455 5.56104 5.06885 5.52344 4.99023C5.48242 4.9082 5.18164 4.1084 5.05859 3.78369C4.93555 3.46924 4.80908 3.51025 4.7168 3.50684C4.63135 3.5 4.52881 3.5 4.42969 3.5Z" fill="black"/>
</svg>
