<svg width="20" height="20" viewBox="0 0 20 20" fill="none" xmlns="http://www.w3.org/2000/svg">
<path fill-rule="evenodd" clip-rule="evenodd" d="M1.7502 0.438216C0.11497 1.25496 0.000971084 1.8132 0.000971084 9.00012C0.000971084 18.2983 -0.264525 17.999 7.98438 17.9995L13.3436 18L12.6251 17.25L11.9066 16.5H7.24689C1.04696 16.5 1.5002 16.9795 1.5002 10.4216V5.50016H9.00012H16.5V8.70337V11.9066L17.25 12.6251L18 13.3436L17.9995 7.98438C17.999 -0.264525 18.2983 0.000971084 9.00012 0.000971084C3.43118 0.000971084 2.51444 0.0562204 1.7502 0.438216ZM15.9215 2.0437C16.2615 2.36319 16.5 2.87869 16.5 3.29368V4.00018H9.00012H1.5002V3.32868C1.5002 2.95944 1.7447 2.39694 2.0437 2.0787C2.58444 1.5032 2.62169 1.5002 8.96512 1.5002C15.1693 1.5002 15.3586 1.51495 15.9215 2.0437ZM3.09244 7.37064C3.01219 7.57939 3.01219 7.92088 3.09244 8.12963C3.21794 8.45688 4.04218 8.50013 9.05662 8.44213L14.8751 8.37513V7.75014V7.12514L9.05662 7.05814C4.04218 7.00014 3.21794 7.04339 3.09244 7.37064ZM9.59186 9.87161C9.51337 10.0759 9.68061 11.0046 9.96311 11.9351C10.4549 13.5538 10.6166 13.7651 13.6976 16.8135C16.491 19.5775 17.0253 20 17.7283 20C18.2905 20 18.7623 19.7763 19.2693 19.2693C19.7763 18.7623 20 18.2905 20 17.7283C20 17.0255 19.578 16.4913 16.817 13.7013C13.8381 10.6904 13.5323 10.4529 12.0408 9.99236C10.1309 9.40237 9.77861 9.38487 9.59186 9.87161ZM3.09394 10.3664C3.01294 10.5774 3.01294 10.9229 3.09394 11.1338C3.21569 11.4511 3.68618 11.5053 5.80816 11.4463C8.36063 11.3756 8.37513 11.3716 8.37513 10.7501C8.37513 10.1286 8.36063 10.1246 5.80816 10.0539C3.68618 9.99486 3.21569 10.0491 3.09394 10.3664Z" fill="black"/>
</svg>
