<svg width="12" height="11" viewBox="0 0 12 11" fill="none" xmlns="http://www.w3.org/2000/svg">
<path fill-rule="evenodd" clip-rule="evenodd" d="M0.114273 0.184137C-0.1261 0.456194 0.0267684 1.8152 0.441397 3.09381C1.66691 6.87301 4.91014 9.78396 8.97042 10.7489C10.5716 11.1295 11.5537 11.0766 11.8112 10.5959C12.0367 10.1752 12.0703 8.00186 11.8572 7.62761C11.7553 7.44897 11.4608 7.338 10.9158 7.27345C10.4797 7.22179 9.79395 7.08095 9.39228 6.96063L8.66167 6.74194L7.92655 7.42236L7.19142 8.10293L6.69923 7.88197C5.88112 7.51465 4.55018 6.41171 3.8134 5.49037L3.11803 4.62112L3.88298 3.83453C4.46945 3.23139 4.62503 2.97901 4.55018 2.75239C4.49641 2.5899 4.30092 1.91542 4.11552 1.25368L3.7786 0.0505156L2.04042 0.010882C0.639449 -0.0212495 0.265786 0.012439 0.114273 0.184137Z" fill="white"/>
</svg>
