<svg width="18" height="17" viewBox="0 0 18 17" fill="none" xmlns="http://www.w3.org/2000/svg">
<path fill-rule="evenodd" clip-rule="evenodd" d="M5.2875 0.15711C4.3326 0.575171 3.72397 1.50145 3.71812 2.54526L3.7125 3.54175L1.85625 3.54242L0 3.54309V6.23447C0 8.77626 0.024975 8.92586 0.45 8.92586C0.88065 8.92586 0.9 9.07545 0.9 12.4123C0.9 15.8151 0.913275 15.9122 1.45237 16.4494L2.00452 17H9H15.9955L16.5476 16.4494C17.0867 15.9122 17.1 15.8151 17.1 12.4123C17.1 9.07545 17.1194 8.92586 17.55 8.92586C17.975 8.92586 18 8.77626 18 6.23447V3.54309L16.1437 3.54242L14.2875 3.54175L14.2814 2.53136C14.2765 1.69546 14.1496 1.39582 13.5459 0.79407C12.9206 0.170791 12.6578 0.066724 11.7081 0.066724C10.7498 0.066724 10.492 0.171239 9.8001 0.839599L9 1.61247L8.23972 0.877951C7.43242 0.0981233 6.14205 -0.216993 5.2875 0.15711ZM6.966 2.07449C7.56382 2.79242 6.68587 3.89521 5.90625 3.40583C5.6898 3.26992 5.47875 2.98799 5.43757 2.77941C5.26995 1.92983 6.40845 1.40479 6.966 2.07449ZM12.366 2.07449C12.9638 2.79242 12.0859 3.89521 11.3062 3.40583C11.0898 3.26992 10.8787 2.98799 10.8376 2.77941C10.6699 1.92983 11.8084 1.40479 12.366 2.07449ZM16.2 6.23447V7.1316H9H1.8V6.23447V5.33735H9H16.2V6.23447ZM8.1 12.0658V15.2057H5.4H2.7V12.0658V8.92586H5.4H8.1V12.0658ZM15.3 12.0658V15.2057H12.6H9.9V12.0658V8.92586H12.6H15.3V12.0658Z" fill="black"/>
</svg>
