<svg width="16" height="14" viewBox="0 0 16 14" fill="none" xmlns="http://www.w3.org/2000/svg">
<path fill-rule="evenodd" clip-rule="evenodd" d="M6.74271 2.37524C5.55131 5.05185 5.82424 4.84219 3.30218 5.01946C2.51055 5.0752 1.44365 5.16468 0.931425 5.21821L0 5.3157L2.15359 7.1005C3.68288 8.36798 4.2811 8.96797 4.21723 9.17047C4.04739 9.70875 3.0323 13.8388 3.0323 13.9914C3.0323 14.0754 4.08949 13.5301 5.38146 12.78C6.67344 12.0296 7.80565 11.4158 7.89741 11.4158C7.98935 11.4158 9.11814 12.023 10.4062 12.7651C11.694 13.5073 12.7478 14.0519 12.7478 13.9755C12.7478 13.8991 12.47 12.7361 12.1303 11.3909C11.592 9.25859 11.5459 8.91087 11.7699 8.67633C11.9112 8.52838 12.8699 7.72282 13.9003 6.88608C16.0701 5.12429 16.1334 5.23985 12.8861 5.03957C9.91085 4.85617 10.2444 5.08713 9.03736 2.37524C8.45587 1.0689 7.93951 0 7.89003 0C7.84056 0 7.3242 1.0689 6.74271 2.37524Z" fill="#FCCF5D"/>
</svg>
