<svg width="16" height="10" viewBox="0 0 16 10" fill="none" xmlns="http://www.w3.org/2000/svg">
<path d="M14.9023 0.976562C14.9844 0.648438 14.9023 0.375 14.4102 0.375H12.7969C12.3867 0.375 12.1953 0.59375 12.0859 0.839844C12.0859 0.839844 11.2656 2.83594 10.1172 4.14844C9.73438 4.50391 9.57031 4.64062 9.35156 4.64062C9.26953 4.64062 9.10547 4.50391 9.10547 4.17578V0.976562C9.10547 0.566406 8.99609 0.375 8.64062 0.375H6.125C5.85156 0.375 5.71484 0.566406 5.71484 0.757812C5.71484 1.14062 6.28906 1.22266 6.34375 2.31641V4.69531C6.34375 5.21484 6.26172 5.32422 6.04297 5.32422C5.49609 5.32422 4.18359 3.30078 3.39062 1.00391C3.22656 0.566406 3.0625 0.375 2.65234 0.375H1.03906C0.601562 0.375 0.492188 0.59375 0.492188 0.839844C0.492188 1.27734 1.03906 3.38281 3.03516 6.19922C4.375 8.11328 6.26172 9.125 7.95703 9.125C8.96875 9.125 9.10547 8.90625 9.10547 8.52344C9.10547 6.69141 9.02344 6.5 9.51562 6.5C9.76172 6.5 10.1719 6.63672 11.1289 7.56641C12.2227 8.66016 12.4141 9.125 13.0156 9.125H14.6289C15.0938 9.125 15.3125 8.90625 15.1758 8.44141C14.875 7.51172 12.8242 5.54297 12.7148 5.40625C12.4688 5.10547 12.5508 4.96875 12.7148 4.69531C12.7148 4.69531 14.6836 1.90625 14.9023 0.976562Z" fill="white"/>
</svg>
